<?xml version="1.0" encoding="UTF-8" standalone="no"?>
<svg
   xmlns:dc="http://purl.org/dc/elements/1.1/"
   xmlns:cc="http://creativecommons.org/ns#"
   xmlns:rdf="http://www.w3.org/1999/02/22-rdf-syntax-ns#"
   xmlns:svg="http://www.w3.org/2000/svg"
   xmlns="http://www.w3.org/2000/svg"
   xmlns:sodipodi="http://sodipodi.sourceforge.net/DTD/sodipodi-0.dtd"
   xmlns:inkscape="http://www.inkscape.org/namespaces/inkscape"
   sodipodi:docname="music notation.svg"
   inkscape:version="1.0 (4035a4fb49, 2020-05-01)"
   version="1.1"
   id="svg2"
   height="600"
   width="800">
  <title
     id="title20088">pixel music notation</title>
  <defs
     id="defs4" />
  <sodipodi:namedview
     inkscape:document-rotation="0"
     fit-margin-bottom="0"
     fit-margin-right="0"
     fit-margin-left="0"
     fit-margin-top="0"
     inkscape:window-maximized="1"
     inkscape:window-y="-8"
     inkscape:window-x="54"
     inkscape:window-height="745"
     inkscape:window-width="1304"
     inkscape:showpageshadow="false"
     showgrid="false"
     inkscape:current-layer="layer3"
     inkscape:document-units="px"
     inkscape:cy="313"
     inkscape:cx="502"
     inkscape:zoom="1"
     inkscape:pageshadow="2"
     inkscape:pageopacity="1"
     borderopacity="1.0"
     bordercolor="#666666"
     pagecolor="#eaeaea"
     id="base" />
  <metadata
     id="metadata7">
    <rdf:RDF>
      <cc:Work
         rdf:about="">
        <dc:format>image/svg+xml</dc:format>
        <dc:type
           rdf:resource="http://purl.org/dc/dcmitype/StillImage" />
        <dc:title>pixel music notation</dc:title>
        <dc:creator>
          <cc:Agent>
            <dc:title>Roberto Mocci</dc:title>
          </cc:Agent>
        </dc:creator>
        <dc:coverage>avreference</dc:coverage>
        <dc:rights>
          <cc:Agent>
            <dc:title>public domain</dc:title>
          </cc:Agent>
        </dc:rights>
        <cc:license
           rdf:resource="http://creativecommons.org/licenses/publicdomain/" />
      </cc:Work>
      <cc:License
         rdf:about="http://creativecommons.org/licenses/publicdomain/">
        <cc:permits
           rdf:resource="http://creativecommons.org/ns#Reproduction" />
        <cc:permits
           rdf:resource="http://creativecommons.org/ns#Distribution" />
        <cc:permits
           rdf:resource="http://creativecommons.org/ns#DerivativeWorks" />
      </cc:License>
    </rdf:RDF>
  </metadata>
  <g
     sodipodi:insensitive="true"
     transform="translate(0,-481.36218)"
     id="layer1"
     inkscape:groupmode="layer"
     inkscape:label="Layer 1.">
    <path
       inkscape:connector-curvature="0"
       id="rect5549"
       d="m 0,481.36218 800,0 0,600.00002 -800,0 z"
       style="fill:#ffffff;fill-opacity:1;stroke:none" />
  </g>
  <g
     sodipodi:insensitive="true"
     inkscape:label="Layer 2."
     id="layer2"
     inkscape:groupmode="layer">
    <path
       sodipodi:nodetypes="ccccccccccccccccccccccccc"
       inkscape:connector-curvature="0"
       id="rect9994"
       d="m 20,71 0,1 400,0 0,-1 z m 0,12 0,1 400,0 0,-1 z m 0,12 0,1 400,0 0,-1 z m 0,12 0,1 400,0 0,-1 z m 0,12 0,1 400,0 0,-1 z"
       style="fill:#000000;fill-opacity:1;stroke:none" />
    <path
       sodipodi:nodetypes="ccccccccccccccccccccccccc"
       inkscape:connector-curvature="0"
       id="rect10169"
       d="m 20,151 0,1 400,0 0,-1 z m 0,12 0,1 400,0 0,-1 z m 0,12 0,1 400,0 0,-1 z m 0,12 0,1 400,0 0,-1 z m 0,12 0,1 400,0 0,-1 z"
       style="fill:#000000;fill-opacity:1;stroke:none" />
    <path
       sodipodi:nodetypes="ccccccccccccccccccccccccc"
       inkscape:connector-curvature="0"
       id="rect10390"
       d="m 20,231 0,1 400,0 0,-1 z m 0,12 0,1 400,0 0,-1 z m 0,12 0,1 400,0 0,-1 z m 0,12 0,1 400,0 0,-1 z m 0,12 0,1 400,0 0,-1 z"
       style="fill:#000000;fill-opacity:1;stroke:none" />
    <path
       sodipodi:nodetypes="ccccccccccccccccccccccccc"
       inkscape:connector-curvature="0"
       id="rect10480"
       d="m 20,311 0,1 400,0 0,-1 z m 0,12 0,1 400,0 0,-1 z m 0,12 0,1 400,0 0,-1 z m 0,12 0,1 400,0 0,-1 z m 0,12 0,1 400,0 0,-1 z"
       style="fill:#000000;fill-opacity:1;stroke:none" />
    <path
       sodipodi:nodetypes="ccccccccccccccccccccccccc"
       inkscape:connector-curvature="0"
       id="rect12674"
       d="m 20,391 0,1 400,0 0,-1 z m 0,12 0,1 400,0 0,-1 z m 0,12 0,1 400,0 0,-1 z m 0,12 0,1 400,0 0,-1 z m 0,12 0,1 400,0 0,-1 z"
       style="fill:#000000;fill-opacity:1;stroke:none" />
    <path
       sodipodi:nodetypes="ccccccccccccccccccccccccc"
       inkscape:connector-curvature="0"
       id="rect12712"
       d="m 20,471 0,1 400,0 0,-1 z m 0,12 0,1 400,0 0,-1 z m 0,12 0,1 400,0 0,-1 z m 0,12 0,1 400,0 0,-1 z m 0,12 0,1 400,0 0,-1 z"
       style="fill:#000000;fill-opacity:1;stroke:none" />
  </g>
  <g
     inkscape:label="Layer 3."
     id="layer3"
     inkscape:groupmode="layer">
    <g
       id="g13170">
      <path
         style="fill:#000000;fill-opacity:1;stroke:none"
         d="M 620 71 L 620 120 L 621 120 L 621 71 L 620 71 z M 623 71 L 623 120 L 627 120 L 627 71 L 623 71 z "
         id="rect11273" />
      <rect
         y="71"
         x="621"
         height="49"
         width="2"
         id="rect11277"
         style="fill:#ffffff;fill-opacity:1;stroke:none" />
    </g>
    <g
       transform="translate(-161,-80)"
       id="g13099">
      <path
         inkscape:connector-curvature="0"
         style="fill:#000000;fill-opacity:1;stroke:none"
         d="m 641,151 0,49 1,0 0,-49 -1,0 z m 2,0 0,49 1,0 0,-49 -1,0 z"
         id="rect11289" />
      <path
         inkscape:connector-curvature="0"
         style="fill:#ffffff;fill-opacity:1;stroke:none"
         d="m 642,151 0,49 1,0 0,-49 -1,0 z"
         id="rect11295" />
    </g>
    <g
       transform="translate(-4,0)"
       id="g13137">
      <path
         inkscape:connector-curvature="0"
         style="fill:#000000;fill-opacity:1;stroke:none"
         d="m 514,71 0,49 3,0 0,-49 -3,0 z m 5,0 0,49 1,0 0,-49 -1,0 z m 5,17 0,1 -1,0 0,2 1,0 0,1 2,0 0,-1 1,0 0,-2 -1,0 0,-1 -2,0 z m 0,11 0,1 -1,0 0,2 1,0 0,1 2,0 0,-1 1,0 0,-2 -1,0 0,-1 -2,0 z"
         id="rect11345" />
      <rect
         y="71"
         x="-519"
         height="49"
         width="2"
         id="rect11361"
         style="fill:#ffffff;fill-opacity:1;stroke:none"
         transform="scale(-1,1)" />
    </g>
    <path
       id="rect11949"
       d="M 590 76 L 590 79 L 591 79 L 591 76 L 590 76 z M 590 81 L 590 86 L 591 86 L 591 81 L 590 81 z M 590 88 L 590 91 L 591 91 L 591 88 L 590 88 z M 590 93 L 590 98 L 591 98 L 591 93 L 590 93 z M 590 100 L 590 103 L 591 103 L 591 100 L 590 100 z M 590 105 L 590 110 L 591 110 L 591 105 L 590 105 z M 590 112 L 590 115 L 591 115 L 591 112 L 590 112 z "
       style="fill:#000000;fill-opacity:1;stroke:none" />
    <path
       style="fill:#000000;fill-opacity:1;stroke:none"
       d="m 450,71 0,49 1,0 0,-49 z"
       id="path12175"
       inkscape:connector-curvature="0"
       sodipodi:nodetypes="ccccc" />
    <g
       id="g13141"
       transform="matrix(-1,0,0,1,1077,0)">
      <path
         id="path13143"
         d="m 514,71 0,49 3,0 0,-49 -3,0 z m 5,0 0,49 1,0 0,-49 -1,0 z m 5,17 0,1 -1,0 0,2 1,0 0,1 2,0 0,-1 1,0 0,-2 -1,0 0,-1 -2,0 z m 0,11 0,1 -1,0 0,2 1,0 0,1 2,0 0,-1 1,0 0,-2 -1,0 0,-1 -2,0 z"
         style="fill:#000000;fill-opacity:1;stroke:none"
         inkscape:connector-curvature="0" />
      <rect
         transform="scale(-1,1)"
         style="fill:#ffffff;fill-opacity:1;stroke:none"
         id="rect13145"
         width="2"
         height="49"
         x="-519"
         y="71" />
    </g>
    <path
       inkscape:connector-curvature="0"
       id="rect11087"
       d="m 654,68 0,1 -2,0 0,1 -2,0 0,52 3,0 0,-51 1,0 0,-1 1,0 0,-1 1,0 0,-1 -2,0 z m 1,3 0,49 1,0 0,-49 -1,0 z"
       style="fill:#000000;fill-opacity:1;stroke:none" />
    <g
       transform="translate(-1060,-66)"
       id="g11097" />
    <path
       inkscape:connector-curvature="0"
       id="rect11103"
       d="m 680,68 0,54 2,0 0,1 3,0 0,-1 -1,0 0,-1 -1,0 0,-53 -3,0 z m 5,55 0,1 1,0 0,-1 -1,0 z m 0,-52 0,49 1,0 0,-49 -1,0 z"
       style="fill:#000000;fill-opacity:1;stroke:none" />
    <g
       transform="translate(-16,0)"
       id="g13398">
      <path
         inkscape:connector-curvature="0"
         style="fill:#ffffff;fill-opacity:1;stroke:none"
         d="m 614,344 16,0 0,18 -16,0 z"
         id="path13396" />
      <path
         style="font-size:16px;font-style:normal;font-variant:normal;font-weight:bold;font-stretch:normal;text-align:start;line-height:125%;letter-spacing:0px;word-spacing:0px;writing-mode:lr-tb;text-anchor:start;fill:#000000;fill-opacity:1;stroke:none;font-family:Dogica;-inkscape-font-specification:Dogica Bold"
         d="m 616,346 0,14 10,0 0,-2 2,0 0,-4 -2,0 0,-2 2,0 0,-4 -2,0 0,-2 -10,0 z m 4,2 4,0 0,4 -4,0 0,-4 z m 0,6 4,0 0,4 -4,0 0,-4 z"
         id="path9523"
         inkscape:connector-curvature="0" />
    </g>
    <g
       transform="translate(2,0)"
       id="g13402">
      <path
         id="path13394"
         d="m 568,344 16,0 0,18 -16,0 z"
         style="fill:#ffffff;fill-opacity:1;stroke:none"
         inkscape:connector-curvature="0" />
      <path
         inkscape:connector-curvature="0"
         style="font-size:16px;font-style:normal;font-variant:normal;font-weight:bold;font-stretch:normal;text-align:start;line-height:125%;letter-spacing:0px;word-spacing:0px;writing-mode:lr-tb;text-anchor:start;fill:#000000;fill-opacity:1;stroke:none;font-family:Dogica;-inkscape-font-specification:Dogica Bold"
         d="m 572,346 0,2 -2,0 0,12 4,0 0,-4 4,0 0,4 4,0 0,-12 -2,0 0,-2 -8,0 z m 2,2 4,0 0,6 -4,0 0,-6 z"
         id="path9521" />
    </g>
    <g
       id="g13406">
      <path
         inkscape:connector-curvature="0"
         style="fill:#ffffff;fill-opacity:1;stroke:none"
         d="m 542,344 16,0 0,18 -16,0 z"
         id="path13392" />
      <path
         style="font-size:16px;font-style:normal;font-variant:normal;font-weight:bold;font-stretch:normal;text-align:start;line-height:125%;letter-spacing:0px;word-spacing:0px;writing-mode:lr-tb;text-anchor:start;fill:#000000;fill-opacity:1;stroke:none;font-family:Dogica;-inkscape-font-specification:Dogica Bold"
         d="M 546 346 L 546 348 L 544 348 L 544 358 L 546 358 L 546 360 L 556 360 L 556 352 L 550 352 L 550 354 L 552 354 L 552 358 L 548 358 L 548 348 L 556 348 L 556 346 L 546 346 z "
         id="path9519" />
    </g>
    <g
       id="g13410">
      <path
         id="path13390"
         d="m 516,344 16,0 0,18 -16,0 z"
         style="fill:#ffffff;fill-opacity:1;stroke:none"
         inkscape:connector-curvature="0" />
      <path
         style="font-size:16px;font-style:normal;font-variant:normal;font-weight:bold;font-stretch:normal;text-align:start;line-height:125%;letter-spacing:0px;word-spacing:0px;writing-mode:lr-tb;text-anchor:start;fill:#000000;fill-opacity:1;stroke:none;font-family:Dogica;-inkscape-font-specification:Dogica Bold"
         d="M 518 346 L 518 360 L 522 360 L 522 354 L 528 354 L 528 352 L 522 352 L 522 348 L 530 348 L 530 346 L 518 346 z "
         id="path9517" />
    </g>
    <g
       id="g13414">
      <path
         inkscape:connector-curvature="0"
         style="fill:#ffffff;fill-opacity:1;stroke:none"
         d="m 490,344 16,0 0,18 -16,0 z"
         id="path13388" />
      <path
         style="font-size:16px;font-style:normal;font-variant:normal;font-weight:bold;font-stretch:normal;text-align:start;line-height:125%;letter-spacing:0px;word-spacing:0px;writing-mode:lr-tb;text-anchor:start;fill:#000000;fill-opacity:1;stroke:none;font-family:Dogica;-inkscape-font-specification:Dogica Bold"
         d="M 492 346 L 492 360 L 504 360 L 504 358 L 496 358 L 496 354 L 502 354 L 502 352 L 496 352 L 496 348 L 504 348 L 504 346 L 492 346 z "
         id="path9515" />
    </g>
    <g
       id="g13418">
      <path
         id="path13386"
         d="m 462,344 18,0 0,18 -18,0 z"
         style="fill:#ffffff;fill-opacity:1;stroke:none"
         inkscape:connector-curvature="0" />
      <path
         style="font-size:16px;font-style:normal;font-variant:normal;font-weight:bold;font-stretch:normal;text-align:start;line-height:125%;letter-spacing:0px;word-spacing:0px;writing-mode:lr-tb;text-anchor:start;fill:#000000;fill-opacity:1;stroke:none;font-family:Dogica;-inkscape-font-specification:Dogica Bold"
         d="M 464 346 L 464 348 L 466 348 L 466 360 L 476 360 L 476 358 L 478 358 L 478 348 L 476 348 L 476 346 L 464 346 z M 470 348 L 474 348 L 474 358 L 470 358 L 470 348 z "
         id="path9513" />
    </g>
    <g
       id="g13422">
      <path
         style="fill:#ffffff;fill-opacity:1;stroke:none"
         d="m 438,344 16,0 0,18 -16,0 z"
         id="rect13383" />
      <path
         style="font-size:16px;font-style:normal;font-variant:normal;font-weight:bold;font-stretch:normal;text-align:start;line-height:125%;letter-spacing:0px;word-spacing:0px;writing-mode:lr-tb;text-anchor:start;fill:#000000;fill-opacity:1;stroke:none;font-family:Dogica;-inkscape-font-specification:Dogica Bold"
         d="M 442 346 L 442 348 L 440 348 L 440 358 L 442 358 L 442 360 L 450 360 L 450 358 L 452 358 L 452 356 L 448 356 L 448 358 L 444 358 L 444 348 L 448 348 L 448 350 L 452 350 L 452 348 L 450 348 L 450 346 L 442 346 z "
         id="path9511" />
    </g>
    <g
       id="g13441">
      <path
         style="fill:#ffffff;fill-opacity:1;stroke:none"
         d="m 733,308 30,0 0,18 -30,0 z"
         id="path13439"
         inkscape:connector-curvature="0" />
      <path
         style="font-size:16px;font-style:normal;font-variant:normal;font-weight:bold;font-stretch:normal;line-height:125%;letter-spacing:0px;word-spacing:0px;fill:#000000;fill-opacity:1;stroke:none;font-family:Dogica;-inkscape-font-specification:Dogica Bold"
         d="m 737,310 0,2 -2,0 0,4 2,0 0,2 6,0 0,4 -4,0 0,-2 -4,0 0,2 2,0 0,2 8,0 0,-2 2,0 0,-4 -2,0 0,-2 -6,0 0,-4 4,0 0,2 4,0 0,-2 -2,0 0,-2 -8,0 z m 16,0 0,2 2,0 0,10 -2,0 0,2 8,0 0,-2 -2,0 0,-10 2,0 0,-2 -8,0 z"
         id="path9587"
         inkscape:connector-curvature="0" />
    </g>
    <g
       id="g13445">
      <path
         inkscape:connector-curvature="0"
         id="path13437"
         d="m 688,308 30,0 0,18 -30,0 z"
         style="fill:#ffffff;fill-opacity:1;stroke:none" />
      <path
         style="font-size:16px;font-style:normal;font-variant:normal;font-weight:bold;font-stretch:normal;line-height:125%;letter-spacing:0px;word-spacing:0px;fill:#000000;fill-opacity:1;stroke:none;font-family:Dogica;-inkscape-font-specification:Dogica Bold"
         d="m 690,310 0,14 10,0 0,-2 -6,0 0,-12 -4,0 z m 16,0 0,2 -2,0 0,12 4,0 0,-4 4,0 0,4 4,0 0,-12 -2,0 0,-2 -8,0 z m 2,2 4,0 0,6 -4,0 0,-6 z"
         id="path9583"
         inkscape:connector-curvature="0" />
    </g>
    <g
       id="g13449">
      <path
         style="fill:#ffffff;fill-opacity:1;stroke:none"
         d="m 623,308 48,0 0,18 -48,0 z"
         id="path13435"
         inkscape:connector-curvature="0" />
      <path
         style="font-size:16px;font-style:normal;font-variant:normal;font-weight:bold;font-stretch:normal;line-height:125%;letter-spacing:0px;word-spacing:0px;fill:#000000;fill-opacity:1;stroke:none;font-family:Dogica;-inkscape-font-specification:Dogica Bold"
         d="m 627,310 0,2 -2,0 0,4 2,0 0,2 6,0 0,4 -4,0 0,-2 -4,0 0,2 2,0 0,2 8,0 0,-2 2,0 0,-4 -2,0 0,-2 -6,0 0,-4 4,0 0,2 4,0 0,-2 -2,0 0,-2 -8,0 z m 16,0 0,2 -2,0 0,10 2,0 0,2 8,0 0,-2 2,0 0,-10 -2,0 0,-2 -8,0 z m 16,0 0,14 10,0 0,-2 -6,0 0,-12 -4,0 z m -14,2 4,0 0,10 -4,0 0,-10 z"
         id="path9577"
         inkscape:connector-curvature="0" />
    </g>
    <g
       id="g13453">
      <path
         inkscape:connector-curvature="0"
         id="path13433"
         d="m 578,308 32,0 0,18 -32,0 z"
         style="fill:#ffffff;fill-opacity:1;stroke:none" />
      <path
         style="font-size:16px;font-style:normal;font-variant:normal;font-weight:bold;font-stretch:normal;line-height:125%;letter-spacing:0px;word-spacing:0px;fill:#000000;fill-opacity:1;stroke:none;font-family:Dogica;-inkscape-font-specification:Dogica Bold"
         d="m 580,310 0,14 4,0 0,-6 6,0 0,-2 -6,0 0,-4 8,0 0,-2 -12,0 z m 18,0 0,2 -2,0 0,12 4,0 0,-4 4,0 0,4 4,0 0,-12 -2,0 0,-2 -8,0 z m 2,2 4,0 0,6 -4,0 0,-6 z"
         id="path9573"
         inkscape:connector-curvature="0" />
    </g>
    <g
       id="g13457">
      <path
         style="fill:#ffffff;fill-opacity:1;stroke:none"
         d="m 533,308 30,0 0,18 -30,0 z"
         id="path13431"
         inkscape:connector-curvature="0" />
      <path
         style="font-size:16px;font-style:normal;font-variant:normal;font-weight:bold;font-stretch:normal;line-height:125%;letter-spacing:0px;word-spacing:0px;fill:#000000;fill-opacity:1;stroke:none;font-family:Dogica;-inkscape-font-specification:Dogica Bold"
         d="m 535,310 0,14 4,0 0,-7 2,0 0,2 2,0 0,-2 2,0 0,7 4,0 0,-14 -4,0 0,3 -2,0 0,2 -2,0 0,-2 -2,0 0,-3 -4,0 z m 18,0 0,2 2,0 0,10 -2,0 0,2 8,0 0,-2 -2,0 0,-10 2,0 0,-2 -8,0 z"
         id="path9569"
         inkscape:connector-curvature="0" />
    </g>
    <g
       id="g13461">
      <path
         inkscape:connector-curvature="0"
         id="path13429"
         d="m 488,308 32,0 0,18 -32,0 z"
         style="fill:#ffffff;fill-opacity:1;stroke:none" />
      <path
         style="font-size:16px;font-style:normal;font-variant:normal;font-weight:bold;font-stretch:normal;line-height:125%;letter-spacing:0px;word-spacing:0px;fill:#000000;fill-opacity:1;stroke:none;font-family:Dogica;-inkscape-font-specification:Dogica Bold"
         d="m 490,310 0,14 4,0 0,-6 2,0 0,2 2,0 0,4 4,0 0,-4 -2,0 0,-4 2,0 0,-4 -2,0 0,-2 -10,0 z m 16,0 0,14 12,0 0,-2 -8,0 0,-4 6,0 0,-2 -6,0 0,-4 8,0 0,-2 -12,0 z m -12,2 4,0 0,4 -4,0 0,-4 z"
         id="path9565"
         inkscape:connector-curvature="0" />
    </g>
    <g
       id="g13465">
      <path
         style="fill:#ffffff;fill-opacity:1;stroke:none"
         d="m 437,308 34,0 0,18 -34,0 z"
         id="path13426"
         inkscape:connector-curvature="0" />
      <path
         style="font-size:16px;font-style:normal;font-variant:normal;font-weight:bold;font-stretch:normal;line-height:125%;letter-spacing:0px;word-spacing:0px;fill:#000000;fill-opacity:1;stroke:none;font-family:Dogica;-inkscape-font-specification:Dogica Bold"
         d="m 439,310 0,2 2,0 0,12 10,0 0,-2 2,0 0,-10 -2,0 0,-2 -12,0 z m 20,0 0,2 -2,0 0,10 2,0 0,2 8,0 0,-2 2,0 0,-10 -2,0 0,-2 -8,0 z m -14,2 4,0 0,10 -4,0 0,-10 z m 16,0 4,0 0,10 -4,0 0,-10 z"
         id="path9561"
         inkscape:connector-curvature="0" />
    </g>
    <g
       id="g13549">
      <path
         style="fill:#ffffff;fill-opacity:1;stroke:none"
         d="m 440,391 16,0 0,49 -16,0 z"
         id="rect11119" />
      <path
         style="font-size:16px;font-style:normal;font-variant:normal;font-weight:bold;font-stretch:normal;line-height:125%;letter-spacing:0px;word-spacing:0px;fill:#000000;fill-opacity:1;stroke:none;font-family:Dogica Pixel;-inkscape-font-specification:Dogica Pixel Bold"
         d="M 442 393 L 442 395 L 446 395 L 446 407 L 450 407 L 450 395 L 454 395 L 454 393 L 442 393 z M 444 409 L 444 411 L 442 411 L 442 422 L 446 422 L 446 418 L 450 418 L 450 422 L 454 422 L 454 411 L 452 411 L 452 409 L 444 409 z M 446 411 L 450 411 L 450 416 L 446 416 L 446 411 z M 442 424 L 442 438 L 452 438 L 452 436 L 454 436 L 454 432 L 452 432 L 452 430 L 454 430 L 454 426 L 452 426 L 452 424 L 442 424 z M 446 426 L 450 426 L 450 430 L 446 430 L 446 426 z M 446 432 L 450 432 L 450 436 L 446 436 L 446 432 z "
         id="path11125" />
    </g>
    <path
       inkscape:connector-curvature="0"
       id="path13711"
       d="m 481,428 0,1 -1,0 0,1 2,0 0,-1 2,0 0,2 -1,0 0,1 -1,0 0,1 -1,0 0,1 -1,0 0,1 6,0 0,-1 -3,0 0,-1 1,0 0,-1 1,0 0,-1 1,0 0,-2 -1,0 0,-1 -4,0 z m 12,0 0,1 -1,0 0,1 2,0 0,-1 2,0 0,2 -1,0 0,1 -1,0 0,1 -1,0 0,1 -1,0 0,1 6,0 0,-1 -3,0 0,-1 1,0 0,-1 1,0 0,-1 1,0 0,-2 -1,0 0,-1 -4,0 z m 12,0 0,1 -1,0 0,1 2,0 0,-1 2,0 0,2 -1,0 0,1 -1,0 0,1 -1,0 0,1 -1,0 0,1 6,0 0,-1 -3,0 0,-1 1,0 0,-1 1,0 0,-1 1,0 0,-2 -1,0 0,-1 -4,0 z m 12,0 0,1 -1,0 0,1 2,0 0,-1 2,0 0,2 -1,0 0,1 -1,0 0,1 -1,0 0,1 -1,0 0,1 6,0 0,-1 -3,0 0,-1 1,0 0,-1 1,0 0,-1 1,0 0,-2 -1,0 0,-1 -4,0 z"
       style="font-size:8px;font-style:normal;font-variant:normal;font-weight:bold;font-stretch:normal;line-height:125%;letter-spacing:0px;word-spacing:0px;fill:#000000;fill-opacity:1;stroke:none;font-family:Dogica Pixel;-inkscape-font-specification:Dogica Pixel Bold" />
    <path
       inkscape:connector-curvature="0"
       id="path13702"
       d="m 480,399 0,1 1,0 0,1 1,0 0,2 -1,0 0,1 -1,0 0,1 2,0 0,-1 2,0 0,1 2,0 0,-1 -1,0 0,-1 -1,0 0,-2 1,0 0,-1 1,0 0,-1 -2,0 0,1 -2,0 0,-1 -2,0 z m 12,0 0,1 1,0 0,1 1,0 0,2 -1,0 0,1 -1,0 0,1 2,0 0,-1 2,0 0,1 2,0 0,-1 -1,0 0,-1 -1,0 0,-2 1,0 0,-1 1,0 0,-1 -2,0 0,1 -2,0 0,-1 -2,0 z m 12,0 0,1 1,0 0,1 1,0 0,2 -1,0 0,1 -1,0 0,1 2,0 0,-1 2,0 0,1 2,0 0,-1 -1,0 0,-1 -1,0 0,-2 1,0 0,-1 1,0 0,-1 -2,0 0,1 -2,0 0,-1 -2,0 z m 12,0 0,1 1,0 0,1 1,0 0,2 -1,0 0,1 -1,0 0,1 2,0 0,-1 2,0 0,1 2,0 0,-1 -1,0 0,-1 -1,0 0,-2 1,0 0,-1 1,0 0,-1 -2,0 0,1 -2,0 0,-1 -2,0 z"
       style="font-size:8px;font-style:normal;font-variant:normal;font-weight:bold;font-stretch:normal;line-height:125%;letter-spacing:0px;word-spacing:0px;fill:#000000;fill-opacity:1;stroke:none;font-family:Dogica Pixel;-inkscape-font-specification:Dogica Pixel Bold" />
    <path
       inkscape:connector-curvature="0"
       id="path13693"
       d="m 553,413 0,1 -1,0 0,1 -1,0 0,1 -1,0 0,2 3,0 0,2 2,0 0,-2 1,0 0,-1 -1,0 0,-4 -2,0 z m 12,0 0,1 -1,0 0,1 -1,0 0,1 -1,0 0,2 3,0 0,2 2,0 0,-2 1,0 0,-1 -1,0 0,-4 -2,0 z m 12,0 0,1 -1,0 0,1 -1,0 0,1 -1,0 0,2 3,0 0,2 2,0 0,-2 1,0 0,-1 -1,0 0,-4 -2,0 z m 12,0 0,1 -1,0 0,1 -1,0 0,1 -1,0 0,2 3,0 0,2 2,0 0,-2 1,0 0,-1 -1,0 0,-4 -2,0 z m -37,3 1,0 0,1 -1,0 0,-1 z m 12,0 1,0 0,1 -1,0 0,-1 z m 12,0 1,0 0,1 -1,0 0,-1 z m 12,0 1,0 0,1 -1,0 0,-1 z"
       style="font-size:8px;font-style:normal;font-variant:normal;font-weight:bold;font-stretch:normal;line-height:125%;letter-spacing:0px;word-spacing:0px;fill:#000000;fill-opacity:1;stroke:none;font-family:Dogica Pixel;-inkscape-font-specification:Dogica Pixel Bold" />
    <path
       inkscape:connector-curvature="0"
       id="path13684"
       d="m 620,413 0,2 2,0 0,-1 2,0 0,2 -1,0 0,1 -1,0 0,1 -1,0 0,2 2,0 0,-2 1,0 0,-1 1,0 0,-1 1,0 0,-3 -6,0 z m 12,0 0,2 2,0 0,-1 2,0 0,2 -1,0 0,1 -1,0 0,1 -1,0 0,2 2,0 0,-2 1,0 0,-1 1,0 0,-1 1,0 0,-3 -6,0 z m 12,0 0,2 2,0 0,-1 2,0 0,2 -1,0 0,1 -1,0 0,1 -1,0 0,2 2,0 0,-2 1,0 0,-1 1,0 0,-1 1,0 0,-3 -6,0 z m 12,0 0,2 2,0 0,-1 2,0 0,2 -1,0 0,1 -1,0 0,1 -1,0 0,2 2,0 0,-2 1,0 0,-1 1,0 0,-1 1,0 0,-3 -6,0 z"
       style="font-size:8px;font-style:normal;font-variant:normal;font-weight:bold;font-stretch:normal;line-height:125%;letter-spacing:0px;word-spacing:0px;fill:#000000;fill-opacity:1;stroke:none;font-family:Dogica Pixel;-inkscape-font-specification:Dogica Pixel Bold" />
    <path
       inkscape:connector-curvature="0"
       id="path13675"
       d="m 482,413 0,1 -2,0 0,1 2,0 0,4 -2,0 0,1 6,0 0,-1 -2,0 0,-6 -2,0 z m 12,0 0,1 -2,0 0,1 2,0 0,4 -2,0 0,1 6,0 0,-1 -2,0 0,-6 -2,0 z m 12,0 0,1 -2,0 0,1 2,0 0,4 -2,0 0,1 6,0 0,-1 -2,0 0,-6 -2,0 z m 12,0 0,1 -2,0 0,1 2,0 0,4 -2,0 0,1 6,0 0,-1 -2,0 0,-6 -2,0 z"
       style="font-size:8px;font-style:normal;font-variant:normal;font-weight:bold;font-stretch:normal;line-height:125%;letter-spacing:0px;word-spacing:0px;fill:#000000;fill-opacity:1;stroke:none;font-family:Dogica Pixel;-inkscape-font-specification:Dogica Pixel Bold" />
    <path
       inkscape:connector-curvature="0"
       id="path13666"
       d="m 550,398 0,1 4,0 0,2 -3,0 0,1 3,0 0,2 -4,0 0,1 5,0 0,-1 1,0 0,-2 -1,0 0,-1 1,0 0,-2 -1,0 0,-1 -5,0 z m 12,0 0,1 4,0 0,2 -3,0 0,1 3,0 0,2 -4,0 0,1 5,0 0,-1 1,0 0,-2 -1,0 0,-1 1,0 0,-2 -1,0 0,-1 -5,0 z m 12,0 0,1 4,0 0,2 -3,0 0,1 3,0 0,2 -4,0 0,1 5,0 0,-1 1,0 0,-2 -1,0 0,-1 1,0 0,-2 -1,0 0,-1 -5,0 z m 12,0 0,1 4,0 0,2 -3,0 0,1 3,0 0,2 -4,0 0,1 5,0 0,-1 1,0 0,-2 -1,0 0,-1 1,0 0,-2 -1,0 0,-1 -5,0 z"
       style="font-size:8px;font-style:normal;font-variant:normal;font-weight:bold;font-stretch:normal;line-height:125%;letter-spacing:0px;word-spacing:0px;fill:#000000;fill-opacity:1;stroke:none;font-family:Dogica Pixel;-inkscape-font-specification:Dogica Pixel Bold" />
    <path
       inkscape:connector-curvature="0"
       id="path13657"
       d="m 550,428 0,3 4,0 0,3 -2,0 0,-1 -2,0 0,1 1,0 0,1 4,0 0,-1 1,0 0,-3 -1,0 0,-1 -3,0 0,-1 4,0 0,-1 -6,0 z m 12,0 0,3 4,0 0,3 -2,0 0,-1 -2,0 0,1 1,0 0,1 4,0 0,-1 1,0 0,-3 -1,0 0,-1 -3,0 0,-1 4,0 0,-1 -6,0 z m 12,0 0,3 4,0 0,3 -2,0 0,-1 -2,0 0,1 1,0 0,1 4,0 0,-1 1,0 0,-3 -1,0 0,-1 -3,0 0,-1 4,0 0,-1 -6,0 z m 12,0 0,3 4,0 0,3 -2,0 0,-1 -2,0 0,1 1,0 0,1 4,0 0,-1 1,0 0,-3 -1,0 0,-1 -3,0 0,-1 4,0 0,-1 -6,0 z"
       style="font-size:8px;font-style:normal;font-variant:normal;font-weight:bold;font-stretch:normal;line-height:125%;letter-spacing:0px;word-spacing:0px;fill:#000000;fill-opacity:1;stroke:none;font-family:Dogica Pixel;-inkscape-font-specification:Dogica Pixel Bold" />
    <path
       inkscape:connector-curvature="0"
       id="path13648"
       d="m 621,398 0,1 -1,0 0,5 1,0 0,1 4,0 0,-1 1,0 0,-2 -1,0 0,-1 -3,0 0,-2 2,0 0,1 2,0 0,-1 -1,0 0,-1 -4,0 z m 12,0 0,1 -1,0 0,5 1,0 0,1 4,0 0,-1 1,0 0,-2 -1,0 0,-1 -3,0 0,-2 2,0 0,1 2,0 0,-1 -1,0 0,-1 -4,0 z m 12,0 0,1 -1,0 0,5 1,0 0,1 4,0 0,-1 1,0 0,-2 -1,0 0,-1 -3,0 0,-2 2,0 0,1 2,0 0,-1 -1,0 0,-1 -4,0 z m 12,0 0,1 -1,0 0,5 1,0 0,1 4,0 0,-1 1,0 0,-2 -1,0 0,-1 -3,0 0,-2 2,0 0,1 2,0 0,-1 -1,0 0,-1 -4,0 z m -35,4 2,0 0,2 -2,0 0,-2 z m 12,0 2,0 0,2 -2,0 0,-2 z m 12,0 2,0 0,2 -2,0 0,-2 z m 12,0 2,0 0,2 -2,0 0,-2 z"
       style="font-size:8px;font-style:normal;font-variant:normal;font-weight:bold;font-stretch:normal;line-height:125%;letter-spacing:0px;word-spacing:0px;fill:#000000;fill-opacity:1;stroke:none;font-family:Dogica Pixel;-inkscape-font-specification:Dogica Pixel Bold" />
    <path
       inkscape:connector-curvature="0"
       id="path13639"
       d="m 621,428 0,1 -1,0 0,2 1,0 0,1 -1,0 0,2 1,0 0,1 4,0 0,-1 1,0 0,-2 -1,0 0,-1 1,0 0,-2 -1,0 0,-1 -4,0 z m 12,0 0,1 -1,0 0,2 1,0 0,1 -1,0 0,2 1,0 0,1 4,0 0,-1 1,0 0,-2 -1,0 0,-1 1,0 0,-2 -1,0 0,-1 -4,0 z m 12,0 0,1 -1,0 0,2 1,0 0,1 -1,0 0,2 1,0 0,1 4,0 0,-1 1,0 0,-2 -1,0 0,-1 1,0 0,-2 -1,0 0,-1 -4,0 z m 12,0 0,1 -1,0 0,2 1,0 0,1 -1,0 0,2 1,0 0,1 4,0 0,-1 1,0 0,-2 -1,0 0,-1 1,0 0,-2 -1,0 0,-1 -4,0 z m -35,1 2,0 0,2 -2,0 0,-2 z m 12,0 2,0 0,2 -2,0 0,-2 z m 12,0 2,0 0,2 -2,0 0,-2 z m 12,0 2,0 0,2 -2,0 0,-2 z m -36,3 2,0 0,2 -2,0 0,-2 z m 12,0 2,0 0,2 -2,0 0,-2 z m 12,0 2,0 0,2 -2,0 0,-2 z m 12,0 2,0 0,2 -2,0 0,-2 z"
       style="font-size:8px;font-style:normal;font-variant:normal;font-weight:bold;font-stretch:normal;line-height:125%;letter-spacing:0px;word-spacing:0px;fill:#000000;fill-opacity:1;stroke:none;font-family:Dogica Pixel;-inkscape-font-specification:Dogica Pixel Bold" />
    <path
       inkscape:connector-curvature="0"
       id="path13630"
       d="m 691,398 0,1 -1,0 0,2 1,0 0,1 3,0 0,1 -1,0 0,1 -2,0 0,1 3,0 0,-1 1,0 0,-1 1,0 0,-4 -1,0 0,-1 -4,0 z m 12,0 0,1 -1,0 0,2 1,0 0,1 3,0 0,1 -1,0 0,1 -2,0 0,1 3,0 0,-1 1,0 0,-1 1,0 0,-4 -1,0 0,-1 -4,0 z m 12,0 0,1 -1,0 0,2 1,0 0,1 3,0 0,1 -1,0 0,1 -2,0 0,1 3,0 0,-1 1,0 0,-1 1,0 0,-4 -1,0 0,-1 -4,0 z m 12,0 0,1 -1,0 0,2 1,0 0,1 3,0 0,1 -1,0 0,1 -2,0 0,1 3,0 0,-1 1,0 0,-1 1,0 0,-4 -1,0 0,-1 -4,0 z m -35,1 2,0 0,2 -2,0 0,-2 z m 12,0 2,0 0,2 -2,0 0,-2 z m 12,0 2,0 0,2 -2,0 0,-2 z m 12,0 2,0 0,2 -2,0 0,-2 z"
       style="font-size:8px;font-style:normal;font-variant:normal;font-weight:bold;font-stretch:normal;line-height:125%;letter-spacing:0px;word-spacing:0px;fill:#000000;fill-opacity:1;stroke:none;font-family:Dogica Pixel;-inkscape-font-specification:Dogica Pixel Bold" />
    <path
       inkscape:connector-curvature="0"
       id="path13784"
       d="m 691,413 0,1 -1,0 0,5 1,0 0,1 4,0 0,-1 1,0 0,-5 -1,0 0,-1 -4,0 z m 12,0 0,1 -1,0 0,5 1,0 0,1 4,0 0,-1 1,0 0,-5 -1,0 0,-1 -4,0 z m 12,0 0,1 -1,0 0,5 1,0 0,1 4,0 0,-1 1,0 0,-5 -1,0 0,-1 -4,0 z m 12,0 0,1 -1,0 0,5 1,0 0,1 4,0 0,-1 1,0 0,-5 -1,0 0,-1 -4,0 z m -35,1 2,0 0,5 -2,0 0,-5 z m 12,0 2,0 0,5 -2,0 0,-5 z m 12,0 2,0 0,5 -2,0 0,-5 z m 12,0 2,0 0,5 -2,0 0,-5 z"
       style="font-size:8.00000763px;font-style:normal;font-variant:normal;font-weight:bold;font-stretch:normal;line-height:125%;letter-spacing:0px;word-spacing:0px;fill:#000000;fill-opacity:1;stroke:none;font-family:Dogica Pixel;-inkscape-font-specification:Dogica Pixel Bold" />
    <g
       transform="translate(1,0)"
       id="g13854">
      <path
         inkscape:connector-curvature="0"
         style="fill:#ffffff;fill-opacity:1;stroke:none"
         d="m 749,397 9,0 0,9 -9,0 z"
         id="rect12991" />
      <path
         inkscape:connector-curvature="0"
         style="font-size:8px;font-style:normal;font-variant:normal;font-weight:bold;font-stretch:normal;line-height:125%;letter-spacing:0px;word-spacing:0px;fill:#000000;fill-opacity:1;stroke:none;font-family:Dogica Pixel;-inkscape-font-specification:Dogica Pixel Bold"
         d="m 750,398 0,2 1,0 0,1 1,0 0,1 -1,0 0,1 -1,0 0,2 2,0 0,-2 1,0 0,-1 1,0 0,1 1,0 0,2 2,0 0,-2 -1,0 0,-1 -1,0 0,-1 1,0 0,-1 1,0 0,-2 -2,0 0,2 -1,0 0,1 -1,0 0,-1 -1,0 0,-2 -2,0 z"
         id="path12993" />
    </g>
    <path
       inkscape:connector-curvature="0"
       id="rect13023"
       d="m 752,413 0,1 -1,0 0,1 -1,0 0,5 1,0 0,1 1,0 0,1 5,0 0,-1 1,0 0,-1 1,0 0,-5 -1,0 0,-1 -1,0 0,-1 -5,0 z"
       style="fill:#000000;fill-opacity:1;stroke:none" />
    <path
       inkscape:connector-curvature="0"
       id="rect12755"
       d="m 690,435 0,2 24,0 0,-2 -24,0 z"
       style="fill:#000000;fill-opacity:1;stroke:none" />
    <path
       sodipodi:nodetypes="ccccccccc"
       inkscape:connector-curvature="0"
       id="rect12810"
       d="m 726,430 0,7 1,0 0,-3 10,0 0,3 1,0 0,-7 z"
       style="fill:#000000;fill-opacity:1;stroke:none" />
    <path
       sodipodi:nodetypes="ccccccccccccccccccccccccccccc"
       inkscape:connector-curvature="0"
       id="rect12835"
       d="m 751,429 0,3 1,0 0,2 1,0 0,2 1,0 0,1 1,0 0,-1 1,0 0,-2 1,0 0,-2 1,0 0,-3 -1,0 0,2 -1,0 0,2 -1,0 0,2 -1,0 0,-2 -1,0 0,-2 -1,0 0,-2 z"
       style="fill:#000000;fill-opacity:1;stroke:none" />
    <path
       sodipodi:nodetypes="ccccccccc"
       inkscape:connector-curvature="0"
       id="rect11593"
       d="m 659,471 0,6 -39,0 0,2 39,0 0,6 1,0 0,-14 z"
       style="fill:#000000;fill-opacity:1;stroke:none" />
    <path
       sodipodi:nodetypes="ccccccccc"
       inkscape:connector-curvature="0"
       id="rect12782"
       d="m 442,471 0,8 80,0 0,-8 -1,0 0,7 -78,0 0,-7 z"
       style="fill:#000000;fill-opacity:1;stroke:none" />
    <path
       sodipodi:nodetypes="ccccccccc"
       inkscape:connector-curvature="0"
       id="rect11587"
       d="m 552,471 0,14 1,0 0,-6 39,0 0,-2 -39,0 0,-6 z"
       style="fill:#000000;fill-opacity:1;stroke:none" />
    <path
       inkscape:connector-curvature="0"
       id="rect11690"
       d="m 498,234 0,7 0,1 -2,0 0,1 -2,0 0,-7 -1,0 0,8 -1,0 0,1 -2,0 0,2 3,0 0,8 -1,0 0,1 -2,0 0,2 3,0 0,7 1,0 0,-8 2,0 0,-1 2,0 0,7 1,0 0,-8 1,0 0,-1 2,0 0,-2 -3,0 0,-8 1,0 0,-1 2,0 0,-2 -3,0 0,-7 -1,0 z m -2,11 2,0 0,8 -2,0 0,1 -2,0 0,-7 0,-1 2,0 0,-1 z"
       style="fill:#000000;fill-opacity:1;stroke:none" />
    <path
       inkscape:connector-curvature="0"
       id="rect12385"
       d="m 472,237 0,21 -1,0 0,1 -1,0 0,1 -1,0 -1,0 0,-1 -1,0 0,-1 -1,0 0,-1 -1,0 -1,0 0,1 1,0 0,1 1,0 0,1 1,0 0,1 1,0 0,1 -1,0 0,1 -1,0 0,1 -1,0 0,1 -1,0 0,1 1,0 1,0 0,-1 1,0 0,-1 1,0 0,-1 1,0 1,0 0,1 1,0 0,1 1,0 0,1 1,0 1,0 0,-1 -1,0 0,-1 -1,0 0,-1 -1,0 0,-1 -1,0 0,-1 1,0 0,-1 1,0 0,-1 1,0 0,-1 0,-21 -1,0 z"
       style="fill:#000000;fill-opacity:1;stroke:none" />
    <path
       sodipodi:nodetypes="ccccccccccccccccccccccccccccccccccccccccccccccccccccccccccccccccc"
       inkscape:connector-curvature="0"
       style="fill:#000000;fill-opacity:1;stroke:none"
       d="m 452,237 0,15 -1,0 0,1 -1,0 0,1 -1,0 -1,0 0,-1 -1,0 0,-1 -1,0 0,-1 -1,0 -1,0 0,1 1,0 0,1 1,0 0,1 1,0 0,1 1,0 0,1 -1,0 0,1 -1,0 0,1 -1,0 0,1 -1,0 0,1 1,0 1,0 0,-1 1,0 0,-1 1,0 0,-1 1,0 1,0 0,1 1,0 0,1 1,0 0,1 1,0 1,0 0,-1 -1,0 0,-1 -1,0 0,-1 -1,0 0,-1 -1,0 0,-1 1,0 0,-1 1,0 0,-1 1,0 0,-1 0,-15 z"
       id="path14289" />
    <g
       transform="translate(143,0)"
       id="g14385">
      <path
         style="fill:#000000;fill-opacity:1;stroke:none"
         d="m 375,239 0,9 -2,0 0,1 -2,0 0,-8 -1,0 0,9 -1,0 0,1 -2,0 0,2 3,0 0,8 -1,0 0,1 -2,0 0,2 3,0 0,8 1,0 0,-9 2,0 0,-1 2,0 0,8 1,0 0,-9 1,0 0,-1 2,0 0,-2 -3,0 0,-8 1,0 0,-1 2,0 0,-2 -3,0 0,-8 z m -2,12 2,0 0,7 0,1 -2,0 0,1 -2,0 0,-8 2,0 z"
         id="rect14295"
         inkscape:connector-curvature="0"
         sodipodi:nodetypes="ccccccccccccccccccccccccccccccccccccccccccccccccccc" />
      <path
         inkscape:connector-curvature="0"
         style="fill:#ffffff;fill-opacity:1;stroke:none"
         d="m 373,251 0,1 -2,0 0,8 2,0 0,-1 2,0 0,-8 -2,0 z"
         id="rect14379" />
    </g>
    <path
       sodipodi:nodetypes="ccccccccccccccccccccccccccccccccccccccccccccccccccccccccccccccccccccccccccccccccccccccccccccccccccccccccccccccccccccccccccccccccccccc"
       inkscape:connector-curvature="0"
       id="rect10818"
       d="m 541,235 0,1 -2,0 0,1 -1,0 0,2 -1,0 0,7 1,0 0,1 1,0 0,1 3,0 0,-1 1,0 0,-1 1,0 0,-3 -1,0 0,-1 -1,0 0,-1 -3,0 0,-2 1,0 0,-1 2,0 0,-1 6,0 0,1 1,0 1,0 0,1 1,0 0,1 1,0 0,9 0,1 -1,0 0,1 -1,0 0,1 -1,0 0,1 -1,0 0,1 -1,0 0,1 -1,0 0,1 -1,0 0,1 -1,0 0,1 -1,0 0,1 -1,0 0,1 -1,0 0,1 -1,0 0,1 -1,0 0,1 -2,0 0,1 -2,0 0,1 5,0 0,-1 2,0 0,-1 2,0 0,-1 1,0 0,-1 1,0 0,-1 1,0 0,-1 1,0 0,-1 1,0 0,-1 1,0 0,-1 1,0 0,-1 1,0 0,-1 1,0 0,-1 1,0 0,-1 1,0 0,-2 1,0 0,-10 -1,0 0,-2 -1,0 0,-1 -1,0 0,-1 -2,0 0,-1 z m 19,2 0,1 -1,0 0,2 1,0 0,1 2,0 0,-1 1,0 0,-2 -1,0 0,-1 z m 0,9 0,1 -1,0 0,2 1,0 0,1 2,0 0,-1 1,0 0,-2 -1,0 0,-1 z"
       style="fill:#000000;fill-opacity:1;stroke:none" />
    <g
       transform="translate(176,0)"
       id="g14842">
      <path
         style="fill:#000000;fill-opacity:1;stroke:none"
         d="m 399,231 0,49 3,0 0,-49 z m 5,0 0,23 0,3 0,23 1,0 0,-22 1,0 0,1 1,0 0,1 2,0 0,1 5,0 0,1 1,0 0,1 1,0 0,1 1,0 0,9 -1,0 0,1 -1,0 0,1 -1,0 0,1 -4,0 0,-1 1,0 0,-3 -1,0 0,-1 -3,0 0,1 -1,0 0,3 1,0 0,1 1,0 0,1 2,0 0,1 6,0 0,-1 2,0 0,-1 1,0 0,-1 1,0 0,-2 1,0 0,-9 -1,0 0,-2 -1,0 0,-1 -1,0 0,-1 -2,0 0,-1 -5,0 0,-1 -1,0 0,-5 1,0 0,-1 5,0 0,-1 2,0 0,-1 1,0 0,-1 1,0 0,-2 1,0 0,-9 -1,0 0,-2 -1,0 0,-1 -1,0 0,-1 -2,0 0,-1 -6,0 0,1 -2,0 0,1 -1,0 0,1 -1,0 0,3 1,0 0,1 3,0 0,-1 1,0 0,-3 -1,0 0,-1 4,0 0,1 1,0 0,1 1,0 0,1 1,0 0,9 -1,0 0,1 -1,0 0,1 -1,0 0,1 -2,0 -3,0 0,1 -2,0 0,1 -1,0 0,1 -1,0 0,-22 z"
         id="path10994"
         inkscape:connector-curvature="0"
         sodipodi:nodetypes="ccccccccccccccccccccccccccccccccccccccccccccccccccccccccccccccccccccccccccccccccccccccccccccccccccccccccccccccccccccccccccccccccc" />
      <path
         style="fill:#ffffff;fill-opacity:1;stroke:none"
         d="m 402,232 0,47 2,0 0,-47 z"
         id="path10998"
         inkscape:connector-curvature="0"
         sodipodi:nodetypes="ccccc" />
    </g>
    <path
       id="rect8866"
       d="m 447,164 24,0 0,23 -24,0 z"
       style="fill:#000000;fill-opacity:1;stroke:none" />
    <path
       inkscape:connector-curvature="0"
       id="rect8868"
       d="m 490,164 12,0 0,23 -12,0 z"
       style="fill:#000000;fill-opacity:1;stroke:none" />
    <path
       inkscape:connector-curvature="0"
       id="rect8870"
       d="m 520,176 12,0 0,11 -12,0 z"
       style="fill:#000000;fill-opacity:1;stroke:none" />
    <path
       id="rect8872"
       d="m 549,181 12,0 0,6 -12,0 z"
       style="fill:#000000;fill-opacity:1;stroke:none" />
    <g
       transform="translate(231,0)"
       id="g15068">
      <path
         style="fill:#000000;fill-opacity:1;stroke:none"
         d="m 379,151 0,25 1,0 0,-5 29,0 0,29 1,0 0,-49 -1,0 0,5 -29,0 0,-5 z m 1,8 29,0 0,9 -29,0 z"
         id="rect8876"
         inkscape:connector-curvature="0"
         sodipodi:nodetypes="cccccccccccccccccc" />
      <path
         inkscape:connector-curvature="0"
         style="fill:#ffffff;fill-opacity:1;stroke:none"
         d="m 380,159 29,0 0,9 -29,0 z"
         id="rect8758" />
    </g>
    <g
       id="g15049">
      <path
         style="fill:#000000;fill-opacity:1;stroke:none"
         d="m 582,177 0,1 -2,0 0,1 -1,0 0,5 1,0 0,1 2,0 0,1 6,0 0,-1 2,0 0,-1 1,0 0,-5 -1,0 0,-1 -2,0 0,-1 z"
         id="path9698"
         inkscape:connector-curvature="0"
         sodipodi:nodetypes="ccccccccccccccccccccc" />
      <path
         style="fill:#000000;fill-opacity:1;stroke:none"
         d="m 576,176 2,0 0,11 -2,0 z"
         id="rect9713" />
      <path
         style="fill:#000000;fill-opacity:1;stroke:none"
         d="m 574,176 1,0 0,11 -1,0 z"
         id="rect9715" />
      <path
         style="fill:#000000;fill-opacity:1;stroke:none"
         d="m 595,176 1,0 0,11 -1,0 z"
         id="rect9718" />
      <path
         style="fill:#000000;fill-opacity:1;stroke:none"
         d="m 592,176 2,0 0,11 -2,0 z"
         id="rect9720" />
    </g>
    <g
       transform="translate(268,0)"
       id="g15084">
      <path
         style="fill:#000000;fill-opacity:1;stroke:none"
         d="m 389,151 0,25 1,0 0,-5 19,0 0,29 1,0 0,-49 -1,0 0,5 -19,0 0,-5 z m 1,8 19,0 0,9 -19,0 z"
         id="rect8884"
         inkscape:connector-curvature="0"
         sodipodi:nodetypes="cccccccccccccccccc" />
      <path
         inkscape:connector-curvature="0"
         style="fill:#ffffff;fill-opacity:1;stroke:none"
         d="m 390,159 19,0 0,9 -19,0 z"
         id="rect8760" />
    </g>
    <path
       inkscape:connector-curvature="0"
       id="rect9460"
       d="m 610,244 0,23 6,0 0,-23 -6,0 z m 15,0 0,23 6,0 0,-23 -6,0 z"
       style="fill:#000000;fill-opacity:1;stroke:none" />
    <g
       transform="translate(252,0)"
       id="g15098">
      <path
         style="fill:#000000;fill-opacity:1;stroke:none"
         d="m 390,237 0,37 16,0 0,-37 z m 6,1 4,0 0,35 -4,0 z"
         id="rect9473"
         inkscape:connector-curvature="0"
         sodipodi:nodetypes="cccccccccc" />
      <path
         inkscape:connector-curvature="0"
         style="fill:#ffffff;fill-opacity:1;stroke:none"
         d="m 396,238 4,0 0,35 -4,0 z"
         id="rect9493" />
    </g>
    <g
       id="g15056">
      <path
         style="fill:#ffffff;fill-opacity:1;stroke:none"
         d="m 582,178 0,1 -1,0 0,5 1,0 0,1 6,0 0,-1 1,0 0,-5 -1,0 0,-1 z"
         id="path9700"
         inkscape:connector-curvature="0"
         sodipodi:nodetypes="ccccccccccccc" />
      <path
         inkscape:connector-curvature="0"
         style="fill:#ffffff;fill-opacity:1;stroke:none"
         d="m 575,176 1,0 0,11 -1,0 z"
         id="rect15039" />
      <path
         inkscape:connector-curvature="0"
         style="fill:#ffffff;fill-opacity:1;stroke:none"
         d="m 594,176 1,0 0,11 -1,0 z"
         id="rect15041" />
    </g>
    <path
       sodipodi:nodetypes="ccccccccccccccccccccccccccccccccccccccccccccccccccccccccccccccccccccccccccccccccccccccccccccccccccccccccccccccccccccccccccccccccccccccccccccccccccccccccccccccccccccccccccccccccc"
       inkscape:connector-curvature="0"
       id="rect11274"
       d="m 288,139 0,57 -1,0 0,-1 -5,0 0,1 -1,0 0,1 -1,0 0,5 1,0 0,1 1,0 0,1 5,0 0,-1 1,0 0,-1 1,0 0,-15 1,0 0,1 1,0 1,0 0,1 1,0 1,0 0,1 1,0 0,2 1,0 0,-4 -1,0 0,-2 -1,0 0,-1 -1,0 0,-1 -1,0 0,-1 -1,0 0,-1 -1,0 0,-1 -1,0 0,-2 1,0 0,1 1,0 1,0 0,1 1,0 1,0 0,1 1,0 0,2 1,0 0,-4 -1,0 0,-2 -1,0 0,-1 -1,0 0,-1 -1,0 0,-1 -1,0 0,-1 -1,0 0,-1 -1,0 0,-2 1,0 0,1 1,0 1,0 0,1 1,0 1,0 0,1 1,0 0,2 1,0 0,-4 -1,0 0,-2 -1,0 0,-1 -1,0 0,-1 -1,0 0,-1 -1,0 0,-1 -1,0 0,-1 -1,0 0,-2 1,0 0,1 1,0 1,0 0,1 1,0 1,0 0,1 1,0 0,2 1,0 0,-4 -1,0 0,-2 -1,0 0,-1 -1,0 0,-1 -1,0 0,-1 -1,0 0,-1 -1,0 0,-1 -1,0 0,-2 1,0 0,1 1,0 1,0 0,1 1,0 1,0 0,1 1,0 0,2 1,0 0,-4 -1,0 0,-2 -1,0 0,-1 -1,0 0,-1 -1,0 0,-1 -1,0 0,-1 -1,0 0,-1 -1,0 0,-2 1,0 0,1 1,0 1,0 0,1 1,0 1,0 0,1 1,0 0,2 1,0 0,-4 -1,0 0,-2 -1,0 0,-1 -1,0 0,-1 -1,0 0,-1 -1,0 0,-1 -1,0 0,-1 -1,0 0,-2 z"
       style="fill:#000000;fill-opacity:1;stroke:none" />
    <path
       sodipodi:nodetypes="ccccccccccccccccccccccccccccccccccccccccccccccccccccccccccccccccccccccccccccccccccccccccccccccccccccccccccccccccccccccccccccccccccccccccccccccccccccccc"
       inkscape:connector-curvature="0"
       id="rect11974"
       d="m 263,147 0,49 -1,0 0,-1 -5,0 0,1 -1,0 0,1 -1,0 0,5 1,0 0,1 1,0 0,1 5,0 0,-1 1,0 0,-1 1,0 0,-15 1,0 0,1 1,0 1,0 0,1 1,0 1,0 0,1 1,0 0,2 1,0 0,-4 -1,0 0,-2 -1,0 0,-1 -1,0 0,-1 -1,0 0,-1 -1,0 0,-1 -1,0 0,-1 -1,0 0,-2 1,0 0,1 1,0 1,0 0,1 1,0 1,0 0,1 1,0 0,2 1,0 0,-4 -1,0 0,-2 -1,0 0,-1 -1,0 0,-1 -1,0 0,-1 -1,0 0,-1 -1,0 0,-1 -1,0 0,-2 1,0 0,1 1,0 1,0 0,1 1,0 1,0 0,1 1,0 0,2 1,0 0,-4 -1,0 0,-2 -1,0 0,-1 -1,0 0,-1 -1,0 0,-1 -1,0 0,-1 -1,0 0,-1 -1,0 0,-2 1,0 0,1 1,0 1,0 0,1 1,0 1,0 0,1 1,0 0,2 1,0 0,-4 -1,0 0,-2 -1,0 0,-1 -1,0 0,-1 -1,0 0,-1 -1,0 0,-1 -1,0 0,-1 -1,0 0,-2 1,0 0,1 1,0 1,0 0,1 1,0 1,0 0,1 1,0 0,2 1,0 0,-4 -1,0 0,-2 -1,0 0,-1 -1,0 0,-1 -1,0 0,-1 -1,0 0,-1 -1,0 0,-1 -1,0 0,-2 z"
       style="fill:#000000;fill-opacity:1;stroke:none" />
    <path
       sodipodi:nodetypes="ccccccccccccccccccccccccccccccccccccccccccccccccccccccccccccccccccccccccccccccccccccccccccccccccccccccccccccccccccccccccccccc"
       inkscape:connector-curvature="0"
       id="rect12096"
       d="m 238,155 0,41 -1,0 0,-1 -5,0 0,1 -1,0 0,1 -1,0 0,5 1,0 0,1 1,0 0,1 5,0 0,-1 1,0 0,-1 1,0 0,-15 1,0 0,1 1,0 1,0 0,1 1,0 1,0 0,1 1,0 0,2 1,0 0,-4 -1,0 0,-2 -1,0 0,-1 -1,0 0,-1 -1,0 0,-1 -1,0 0,-1 -1,0 0,-1 -1,0 0,-2 1,0 0,1 1,0 1,0 0,1 1,0 1,0 0,1 1,0 0,2 1,0 0,-4 -1,0 0,-2 -1,0 0,-1 -1,0 0,-1 -1,0 0,-1 -1,0 0,-1 -1,0 0,-1 -1,0 0,-2 1,0 0,1 1,0 1,0 0,1 1,0 1,0 0,1 1,0 0,2 1,0 0,-4 -1,0 0,-2 -1,0 0,-1 -1,0 0,-1 -1,0 0,-1 -1,0 0,-1 -1,0 0,-1 -1,0 0,-2 1,0 0,1 1,0 1,0 0,1 1,0 1,0 0,1 1,0 0,2 1,0 0,-4 -1,0 0,-2 -1,0 0,-1 -1,0 0,-1 -1,0 0,-1 -1,0 0,-1 -1,0 0,-1 -1,0 0,-2 z"
       style="fill:#000000;fill-opacity:1;stroke:none" />
    <path
       sodipodi:nodetypes="ccccccccccccccccccccccccccccccccccccccccccccccccccccccccccccccccccccccccccccccccccccccccccccccccccc"
       inkscape:connector-curvature="0"
       id="rect12200"
       d="m 213,163 0,33 -1,0 0,-1 -5,0 0,1 -1,0 0,1 -1,0 0,5 1,0 0,1 1,0 0,1 5,0 0,-1 1,0 0,-1 1,0 0,-15 1,0 0,1 1,0 1,0 0,1 1,0 1,0 0,1 1,0 0,2 1,0 0,-4 -1,0 0,-2 -1,0 0,-1 -1,0 0,-1 -1,0 0,-1 -1,0 0,-1 -1,0 0,-1 -1,0 0,-2 1,0 0,1 1,0 1,0 0,1 1,0 1,0 0,1 1,0 0,2 1,0 0,-4 -1,0 0,-2 -1,0 0,-1 -1,0 0,-1 -1,0 0,-1 -1,0 0,-1 -1,0 0,-1 -1,0 0,-2 1,0 0,1 1,0 1,0 0,1 1,0 1,0 0,1 1,0 0,2 1,0 0,-4 -1,0 0,-2 -1,0 0,-1 -1,0 0,-1 -1,0 0,-1 -1,0 0,-1 -1,0 0,-1 -1,0 0,-2 z"
       style="fill:#000000;fill-opacity:1;stroke:none" />
    <path
       sodipodi:nodetypes="ccccccccccccccccccccccccccccccccccccccccccccccccccccccccccccccccccccccccc"
       inkscape:connector-curvature="0"
       id="rect12286"
       d="m 188,171 0,25 -1,0 0,-1 -5,0 0,1 -1,0 0,1 -1,0 0,5 1,0 0,1 1,0 0,1 5,0 0,-1 1,0 0,-1 1,0 0,-15 1,0 0,1 1,0 1,0 0,1 1,0 1,0 0,1 1,0 0,2 1,0 0,-4 -1,0 0,-2 -1,0 0,-1 -1,0 0,-1 -1,0 0,-1 -1,0 0,-1 -1,0 0,-1 -1,0 0,-2 1,0 0,1 1,0 1,0 0,1 1,0 1,0 0,1 1,0 0,2 1,0 0,-4 -1,0 0,-2 -1,0 0,-1 -1,0 0,-1 -1,0 0,-1 -1,0 0,-1 -1,0 0,-1 -1,0 0,-2 z"
       style="fill:#000000;fill-opacity:1;stroke:none" />
    <path
       sodipodi:nodetypes="ccccccccccccccccccccccccccccccccccccccccccccccc"
       inkscape:connector-curvature="0"
       id="rect12354"
       d="m 163,179 0,17 -1,0 0,-1 -5,0 0,1 -1,0 0,1 -1,0 0,5 1,0 0,1 1,0 0,1 5,0 0,-1 1,0 0,-1 1,0 0,-15 1,0 0,1 1,0 1,0 0,1 1,0 1,0 0,1 1,0 0,2 1,0 0,-4 -1,0 0,-2 -1,0 0,-1 -1,0 0,-1 -1,0 0,-1 -1,0 0,-1 -1,0 0,-1 -1,0 0,-2 z"
       style="fill:#000000;fill-opacity:1;stroke:none" />
    <path
       sodipodi:nodetypes="ccccccccccccccccccccccccccccccccccccccccccccccc"
       inkscape:connector-curvature="0"
       id="rect12404"
       d="m 138,175 0,21 -1,0 0,-1 -5,0 0,1 -1,0 0,1 -1,0 0,5 1,0 0,1 1,0 0,1 5,0 0,-1 1,0 0,-1 1,0 0,-19 1,0 0,1 1,0 1,0 0,1 1,0 1,0 0,1 1,0 0,2 1,0 0,-4 -1,0 0,-2 -1,0 0,-1 -1,0 0,-1 -1,0 0,-1 -1,0 0,-1 -1,0 0,-1 -1,0 0,-2 z"
       style="fill:#000000;fill-opacity:1;stroke:none" />
    <path
       sodipodi:nodetypes="ccccccccccccccccccccccccccccccccccccccccc"
       inkscape:connector-curvature="0"
       id="rect7665"
       d="m 148,95 0,21 -1,0 0,-1 -5,0 0,1 -1,0 0,1 -1,0 0,5 1,0 0,1 1,0 0,1 5,0 0,-1 1,0 0,-1 1,0 0,-21 19,0 0,15 -1,0 0,-1 -5,0 0,1 -1,0 0,1 -1,0 0,5 1,0 0,1 1,0 0,1 5,0 0,-1 1,0 0,-1 1,0 0,-27 z"
       style="fill:#000000;fill-opacity:1;stroke:none" />
    <path
       sodipodi:nodetypes="cccccccccccccccccccccccccccccccccccccccccccccccccccccccccccccc"
       inkscape:connector-curvature="0"
       id="rect7673"
       d="m 188,95 0,21 -1,0 0,-1 -5,0 0,1 -1,0 0,1 -1,0 0,5 1,0 0,1 1,0 0,1 5,0 0,-1 1,0 0,-1 1,0 0,-21 19,0 0,15 -1,0 0,-1 -5,0 0,1 -1,0 0,1 -1,0 0,5 1,0 0,1 1,0 0,1 5,0 0,-1 1,0 0,-1 1,0 0,-5 0,-16 19,0 0,15 -1,0 0,-1 -5,0 0,1 -1,0 0,1 -1,0 0,5 1,0 0,1 1,0 0,1 5,0 0,-1 1,0 0,-1 1,0 0,-27 z"
       style="fill:#000000;fill-opacity:1;stroke:none" />
    <path
       sodipodi:nodetypes="ccccccccccccccccccccccccccccccccccccccccccccccccccccccccccccccccccccccccccccccccc"
       inkscape:connector-curvature="0"
       id="rect7683"
       d="m 248,95 0,21 -1,0 0,-1 -5,0 0,1 -1,0 0,1 -1,0 0,5 1,0 0,1 1,0 0,1 5,0 0,-1 1,0 0,-1 1,0 0,-21 19,0 0,15 -1,0 0,-1 -5,0 0,1 -1,0 0,1 -1,0 0,5 1,0 0,1 1,0 0,1 5,0 0,-1 1,0 0,-1 1,0 0,-21 19,0 0,15 -1,0 0,-1 -5,0 0,1 -1,0 0,1 -1,0 0,5 1,0 0,1 1,0 0,1 5,0 0,-1 1,0 0,-1 1,0 0,-21 19,0 0,15 -1,0 0,-1 -5,0 0,1 -1,0 0,1 -1,0 0,5 1,0 0,1 1,0 0,1 5,0 0,-1 1,0 0,-1 1,0 0,-27 z"
       style="fill:#000000;fill-opacity:1;stroke:none" />
    <path
       sodipodi:nodetypes="ccccccccccccccccccccc"
       inkscape:connector-curvature="0"
       id="rect7661"
       d="m 128,95 0,21 -1,0 0,-1 -5,0 0,1 -1,0 0,1 -1,0 0,5 1,0 0,1 1,0 0,1 5,0 0,-1 1,0 0,-1 1,0 0,-27 z"
       style="fill:#000000;fill-opacity:1;stroke:none" />
    <g
       id="g16848">
      <path
         style="fill:#000000;fill-opacity:1;stroke:none"
         d="m 184,243 0,21 -1,0 0,-1 -4,0 0,1 -2,0 0,1 -1,0 0,1 -1,0 0,4 1,0 0,1 1,0 0,1 4,0 0,-1 2,0 0,-1 1,0 0,-1 1,0 0,-20 19,0 0,15 -1,0 0,-1 -4,0 0,1 -2,0 0,1 -1,0 0,1 -1,0 0,4 1,0 0,1 1,0 0,1 4,0 0,-1 2,0 0,-1 1,0 0,-1 1,0 0,-20 19,0 0,15 -1,0 0,-1 -4,0 0,1 -2,0 0,1 -1,0 0,1 -1,0 0,4 1,0 0,1 1,0 0,1 4,0 0,-1 2,0 0,-1 1,0 0,-1 1,0 0,-26 z"
         id="path9817"
         inkscape:connector-curvature="0"
         sodipodi:nodetypes="ccccccccccccccccccccccccccccccccccccccccccccccccccccccccccccccccccccccccc" />
      <g
         id="g16838">
        <path
           sodipodi:nodetypes="ccccccccccccccccc"
           inkscape:connector-curvature="0"
           id="path9819"
           d="m 179,264 0,1 -1,0 0,1 -1,0 0,4 1,0 0,1 3,0 0,-1 1,0 0,-1 1,0 0,-4 -1,0 0,-1 z"
           style="fill:#ffffff;fill-opacity:1;stroke:none" />
        <path
           style="fill:#ffffff;fill-opacity:1;stroke:none"
           d="m 199,264 0,1 -1,0 0,1 -1,0 0,4 1,0 0,1 3,0 0,-1 1,0 0,-1 1,0 0,-4 -1,0 0,-1 z"
           id="path9825"
           inkscape:connector-curvature="0"
           sodipodi:nodetypes="ccccccccccccccccc" />
        <path
           sodipodi:nodetypes="ccccccccccccccccc"
           inkscape:connector-curvature="0"
           id="path9831"
           d="m 219,264 0,1 -1,0 0,1 -1,0 0,4 1,0 0,1 3,0 0,-1 1,0 0,-1 1,0 0,-4 -1,0 0,-1 z"
           style="fill:#ffffff;fill-opacity:1;stroke:none" />
      </g>
    </g>
    <g
       id="g16875">
      <path
         style="fill:#000000;fill-opacity:1;stroke:none"
         d="m 244,243 0,21 -1,0 0,-1 -4,0 0,1 -2,0 0,1 -1,0 0,1 -1,0 0,4 1,0 0,1 1,0 0,1 4,0 0,-1 2,0 0,-1 1,0 0,-1 1,0 0,-20 19,0 0,15 -1,0 0,-1 -4,0 0,1 -2,0 0,1 -1,0 0,1 -1,0 0,4 1,0 0,1 1,0 0,1 4,0 0,-1 2,0 0,-1 1,0 0,-1 1,0 0,-20 19,0 0,15 -1,0 0,-1 -4,0 0,1 -2,0 0,1 -1,0 0,1 -1,0 0,4 1,0 0,1 1,0 0,1 4,0 0,-1 2,0 0,-1 1,0 0,-1 1,0 0,-20 19,0 0,15 -1,0 0,-1 -4,0 0,1 -2,0 0,1 -1,0 0,1 -1,0 0,4 1,0 0,1 1,0 0,1 4,0 0,-1 2,0 0,-1 1,0 0,-1 1,0 0,-26 z"
         id="path9837"
         inkscape:connector-curvature="0"
         sodipodi:nodetypes="ccccccccccccccccccccccccccccccccccccccccccccccccccccccccccccccccccccccccccccccccccccccccccccccccc" />
      <g
         id="g16863">
        <path
           style="fill:#ffffff;fill-opacity:1;stroke:none"
           d="m 239,264 0,1 -1,0 0,1 -1,0 0,4 1,0 0,1 3,0 0,-1 1,0 0,-1 1,0 0,-4 -1,0 0,-1 z"
           id="path9839"
           inkscape:connector-curvature="0"
           sodipodi:nodetypes="ccccccccccccccccc" />
        <path
           sodipodi:nodetypes="ccccccccccccccccc"
           inkscape:connector-curvature="0"
           id="path9845"
           d="m 259,264 0,1 -1,0 0,1 -1,0 0,4 1,0 0,1 3,0 0,-1 1,0 0,-1 1,0 0,-4 -1,0 0,-1 z"
           style="fill:#ffffff;fill-opacity:1;stroke:none" />
        <path
           style="fill:#ffffff;fill-opacity:1;stroke:none"
           d="m 279,264 0,1 -1,0 0,1 -1,0 0,4 1,0 0,1 3,0 0,-1 1,0 0,-1 1,0 0,-4 -1,0 0,-1 z"
           id="path9851"
           inkscape:connector-curvature="0"
           sodipodi:nodetypes="ccccccccccccccccc" />
        <path
           sodipodi:nodetypes="ccccccccccccccccc"
           inkscape:connector-curvature="0"
           id="path9858"
           d="m 299,264 0,1 -1,0 0,1 -1,0 0,4 1,0 0,1 3,0 0,-1 1,0 0,-1 1,0 0,-4 -1,0 0,-1 z"
           style="fill:#ffffff;fill-opacity:1;stroke:none" />
      </g>
    </g>
    <g
       id="g16826">
      <path
         style="fill:#000000;fill-opacity:1;stroke:none"
         d="m 144,243 0,21 -1,0 0,-1 -4,0 0,1 -2,0 0,1 -1,0 0,1 -1,0 0,4 1,0 0,1 1,0 0,1 4,0 0,-1 2,0 0,-1 1,0 0,-1 1,0 0,-20 19,0 0,15 -1,0 0,-1 -4,0 0,1 -2,0 0,1 -1,0 0,1 -1,0 0,4 1,0 0,1 1,0 0,1 4,0 0,-1 2,0 0,-1 1,0 0,-1 1,0 0,-26 z"
         id="path9803"
         inkscape:connector-curvature="0"
         sodipodi:nodetypes="ccccccccccccccccccccccccccccccccccccccccccccccccc" />
      <g
         id="g16822">
        <path
           sodipodi:nodetypes="ccccccccccccccccc"
           inkscape:connector-curvature="0"
           id="path9805"
           d="m 139,264 0,1 -1,0 0,1 -1,0 0,4 1,0 0,1 3,0 0,-1 1,0 0,-1 1,0 0,-4 -1,0 0,-1 z"
           style="fill:#ffffff;fill-opacity:1;stroke:none" />
        <path
           style="fill:#ffffff;fill-opacity:1;stroke:none"
           d="m 159,264 0,1 -1,0 0,1 -1,0 0,4 1,0 0,1 3,0 0,-1 1,0 0,-1 1,0 0,-4 -1,0 0,-1 z"
           id="path9811"
           inkscape:connector-curvature="0"
           sodipodi:nodetypes="ccccccccccccccccc" />
      </g>
    </g>
    <g
       id="g16800">
      <path
         style="fill:#000000;fill-opacity:1;stroke:none"
         d="m 124,243 0,21 -1,0 0,-1 -4,0 0,1 -2,0 0,1 -1,0 0,1 -1,0 0,4 1,0 0,1 1,0 0,1 4,0 0,-1 2,0 0,-1 1,0 0,-1 1,0 0,-26 z"
         id="path9796"
         inkscape:connector-curvature="0"
         sodipodi:nodetypes="ccccccccccccccccccccccccc" />
      <path
         sodipodi:nodetypes="ccccccccccccccccc"
         inkscape:connector-curvature="0"
         id="path9798"
         d="m 119,264 0,1 -1,0 0,1 -1,0 0,4 1,0 0,1 3,0 0,-1 1,0 0,-1 1,0 0,-4 -1,0 0,-1 z"
         style="fill:#ffffff;fill-opacity:1;stroke:none" />
    </g>
    <g
       transform="translate(17,0)"
       id="g16940">
      <path
         sodipodi:nodetypes="ccccccccccccccccccccc"
         inkscape:connector-curvature="0"
         id="path9726"
         d="m 180,485 0,1 -2,0 0,1 -1,0 0,5 1,0 0,1 2,0 0,1 6,0 0,-1 2,0 0,-1 1,0 0,-5 -1,0 0,-1 -2,0 0,-1 z"
         style="fill:#000000;fill-opacity:1;stroke:none" />
      <path
         sodipodi:nodetypes="ccccccccccccc"
         inkscape:connector-curvature="0"
         id="path9728"
         d="m 180,486 0,1 -1,0 0,5 1,0 0,1 6,0 0,-1 1,0 0,-5 -1,0 0,-1 z"
         style="fill:#ffffff;fill-opacity:1;stroke:none" />
      <path
         inkscape:connector-curvature="0"
         id="rect16934"
         d="m 174,489 18,0 0,1 -18,0 z"
         style="fill:#000000;fill-opacity:1;stroke:none" />
    </g>
    <g
       transform="translate(7,0)"
       id="g16947">
      <g
         id="g16930">
        <path
           style="fill:#000000;fill-opacity:1;stroke:none"
           d="m 262,485 0,1 -2,0 0,1 -1,0 0,1 -1,0 0,4 1,0 0,1 1,0 0,1 4,0 0,-1 2,0 0,-1 1,0 0,-2 1,0 0,-3 -1,0 0,-1 -1,0 0,-1 z"
           id="path8612"
           inkscape:connector-curvature="0"
           sodipodi:nodetypes="ccccccccccccccccccccccccc" />
        <path
           style="fill:#ffffff;fill-opacity:1;stroke:none"
           d="m 262,486 0,1 -1,0 0,1 -1,0 0,4 1,0 0,1 3,0 0,-1 1,0 0,-1 1,0 0,-4 -1,0 0,-1 z"
           id="path8614"
           inkscape:connector-curvature="0"
           sodipodi:nodetypes="ccccccccccccccccc" />
      </g>
      <path
         inkscape:connector-curvature="0"
         style="fill:#000000;fill-opacity:1;stroke:none"
         d="m 254,489 18,0 0,1 -18,0 z"
         id="rect16936" />
    </g>
    <g
       transform="translate(-21,0)"
       id="g16953">
      <path
         style="fill:#000000;fill-opacity:1;stroke:none"
         d="m 180,485 0,1 -2,0 0,1 -1,0 0,5 1,0 0,1 2,0 0,1 6,0 0,-1 2,0 0,-1 1,0 0,-5 -1,0 0,-1 -2,0 0,-1 z"
         id="path16955"
         inkscape:connector-curvature="0"
         sodipodi:nodetypes="ccccccccccccccccccccc" />
      <path
         style="fill:#ffffff;fill-opacity:1;stroke:none"
         d="m 180,486 0,1 -1,0 0,5 1,0 0,1 6,0 0,-1 1,0 0,-5 -1,0 0,-1 z"
         id="path16957"
         inkscape:connector-curvature="0"
         sodipodi:nodetypes="ccccccccccccc" />
    </g>
    <g
       transform="translate(-27,0)"
       id="g16961">
      <g
         id="g16963">
        <path
           sodipodi:nodetypes="ccccccccccccccccccccccccc"
           inkscape:connector-curvature="0"
           id="path16965"
           d="m 262,485 0,1 -2,0 0,1 -1,0 0,1 -1,0 0,4 1,0 0,1 1,0 0,1 4,0 0,-1 2,0 0,-1 1,0 0,-2 1,0 0,-3 -1,0 0,-1 -1,0 0,-1 z"
           style="fill:#000000;fill-opacity:1;stroke:none" />
        <path
           sodipodi:nodetypes="ccccccccccccccccc"
           inkscape:connector-curvature="0"
           id="path16967"
           d="m 262,486 0,1 -1,0 0,1 -1,0 0,4 1,0 0,1 3,0 0,-1 1,0 0,-1 1,0 0,-4 -1,0 0,-1 z"
           style="fill:#ffffff;fill-opacity:1;stroke:none" />
      </g>
    </g>
    <path
       inkscape:connector-curvature="0"
       id="rect8763"
       d="m 672,260 0,1 -1,0 0,2 1,0 0,1 2,0 0,-1 1,0 0,-2 -1,0 0,-1 -2,0 z"
       style="fill:#000000;fill-opacity:1;stroke:none" />
    <path
       sodipodi:nodetypes="cccccccccccccccccccccccccccccccccccccccccccccccccccccccccccccccccccccccccccccccccccccccccccccccccccccccccccccccccccccccccccccccccccccccccccccccccccccccccccccccccccccccccccccccccccccccccccccccccccccccccccccccccccccccccccccccccccccccccccccccccccccccccccccccccccccc"
       inkscape:connector-curvature="0"
       id="rect10028"
       d="m 279,299 0,21 -1,0 0,-1 -5,0 0,1 -1,0 0,1 -1,0 0,5 1,0 0,1 1,0 0,1 5,0 0,-1 1,0 0,-1 1,0 0,-18 1,0 0,1 1,0 0,1 1,0 0,1 1,0 0,1 1,0 0,1 1,0 0,1 1,0 0,1 1,0 0,1 1,0 0,1 1,0 0,1 1,0 0,1 1,0 0,1 1,0 0,1 1,0 0,1 1,0 0,1 0,9 -1,0 0,-1 -5,0 0,1 -1,0 0,1 -1,0 0,5 1,0 0,1 1,0 0,1 5,0 0,-1 1,0 0,-1 1,0 0,-14 1,0 0,1 1,0 0,1 1,0 0,1 1,0 0,1 1,0 0,1 1,0 0,1 1,0 0,1 1,0 0,1 1,0 0,1 1,0 0,1 1,0 0,1 1,0 0,1 1,0 0,1 1,0 0,1 1,0 0,6 -1,0 0,-1 -5,0 0,1 -1,0 0,1 -1,0 0,5 1,0 0,1 1,0 0,1 5,0 0,-1 1,0 0,-1 1,0 0,-10 1,0 0,1 1,0 0,1 1,0 0,1 1,0 0,1 1,0 0,1 1,0 0,1 1,0 0,1 1,0 0,1 1,0 0,1 1,0 0,1 1,0 0,1 1,0 0,1 1,0 0,1 1,0 0,1 1,0 0,2 -1,0 0,-1 -5,0 0,1 -1,0 0,1 -1,0 0,5 1,0 0,1 1,0 0,1 5,0 0,-1 1,0 0,-1 1,0 0,-15 -1,0 0,-1 -1,0 0,-1 -1,0 0,-1 -1,0 0,-1 -1,0 0,-1 -1,0 0,-1 -1,0 0,-1 -1,0 0,-1 -1,0 0,-1 -1,0 0,-1 -1,0 0,-1 -1,0 0,-1 -1,0 0,-1 -1,0 0,-1 -1,0 0,-1 -1,0 0,-1 -1,0 0,-1 -1,0 0,-1 -1,0 0,-1 -1,0 0,-1 -1,0 0,-1 -1,0 0,-1 -1,0 0,-1 -1,0 0,-1 -1,0 0,-1 -1,0 0,-1 -1,0 0,-1 -1,0 0,-1 -1,0 0,-1 -1,0 0,-1 -1,0 0,-1 -1,0 0,-1 -1,0 0,-1 -1,0 0,-1 -1,0 0,-1 -1,0 0,-1 -1,0 0,-1 -1,0 0,-1 -1,0 0,-1 -1,0 0,-1 -1,0 0,-1 -1,0 0,-1 -1,0 0,-1 -1,0 0,-1 -1,0 0,-1 -1,0 0,-1 -1,0 0,-1 -1,0 0,-1 z"
       style="fill:#000000;fill-opacity:1;stroke:none" />
    <path
       sodipodi:nodetypes="cccccccccccccccccccccccccccccccccccccccccccccccccccccccccccccccccccccccccccccccccccccccccccccccccccccccccccccccccccccccccccccccccccccccccccccccccccccccccccccccccccccccccccccccccccccc"
       inkscape:connector-curvature="0"
       id="rect17239"
       d="m 229,299 0,21 -1,0 0,-1 -5,0 0,1 -1,0 0,1 -1,0 0,5 1,0 0,1 1,0 0,1 5,0 0,-1 1,0 0,-1 1,0 0,-18 1,0 0,1 1,0 0,1 1,0 0,1 1,0 0,1 1,0 0,1 1,0 0,1 1,0 0,1 1,0 0,1 1,0 0,1 1,0 0,1 1,0 0,1 1,0 0,1 1,0 0,1 1,0 0,1 1,0 0,1 0,9 -1,0 0,-1 -5,0 0,1 -1,0 0,1 -1,0 0,5 1,0 0,1 1,0 0,1 5,0 0,-1 1,0 0,-1 1,0 0,-14 1,0 0,1 1,0 0,1 1,0 0,1 1,0 0,1 1,0 0,1 1,0 0,1 1,0 0,1 1,0 0,1 1,0 0,1 1,0 0,1 1,0 0,1 1,0 0,1 1,0 0,1 1,0 0,1 1,0 0,6 -1,0 0,-1 -5,0 0,1 -1,0 0,1 -1,0 0,5 1,0 0,1 1,0 0,1 5,0 0,-1 1,0 0,-1 1,0 0,-19 -1,0 0,-1 -1,0 0,-1 -1,0 0,-1 -1,0 0,-1 -1,0 0,-1 -1,0 0,-1 -1,0 0,-1 -1,0 0,-1 -1,0 0,-1 -1,0 0,-1 -1,0 0,-1 -1,0 0,-1 -1,0 0,-1 -1,0 0,-1 -1,0 0,-1 -1,0 0,-1 -1,0 0,-1 -1,0 0,-1 -1,0 0,-1 -1,0 0,-1 -1,0 0,-1 -1,0 0,-1 -1,0 0,-1 -1,0 0,-1 -1,0 0,-1 -1,0 0,-1 -1,0 0,-1 -1,0 0,-1 -1,0 0,-1 -1,0 0,-1 -1,0 0,-1 -1,0 0,-1 z"
       style="fill:#000000;fill-opacity:1;stroke:none" />
    <path
       sodipodi:nodetypes="cccccccccccccccccccccccccccccccccccccccccccccccccccccccccccccccccccccccccccccccccccccccccccccccccccccc"
       inkscape:connector-curvature="0"
       id="rect17387"
       d="m 119,298 0,21 -1,0 0,-1 -5,0 0,1 -1,0 0,1 -1,0 0,5 1,0 0,1 1,0 0,1 5,0 0,-1 1,0 0,-1 1,0 0,-18 1,0 0,1 1,0 0,1 1,0 0,1 1,0 0,1 1,0 0,1 1,0 0,1 1,0 0,1 1,0 0,1 1,0 0,1 1,0 0,1 1,0 0,1 1,0 0,1 1,0 0,1 1,0 0,1 1,0 0,1 0,9 -1,0 0,-1 -5,0 0,1 -1,0 0,1 -1,0 0,5 1,0 0,1 1,0 0,1 5,0 0,-1 1,0 0,-1 1,0 0,-23 -1,0 0,-1 -1,0 0,-1 -1,0 0,-1 -1,0 0,-1 -1,0 0,-1 -1,0 0,-1 -1,0 0,-1 -1,0 0,-1 -1,0 0,-1 -1,0 0,-1 -1,0 0,-1 -1,0 0,-1 -1,0 0,-1 -1,0 0,-1 -1,0 0,-1 -1,0 0,-1 z"
       style="fill:#000000;fill-opacity:1;stroke:none" />
    <path
       sodipodi:nodetypes="ccccccccccccccccccccccccccccccccccccccccccccccccccccccccccccccccccccccccccccccccccccccccccccccccccccccccccccccccccccccccccccccccccccccccccccccccccccccccccccccccccccccccccccccccccccc"
       inkscape:connector-curvature="0"
       id="rect17804"
       d="m 189,314 0,17 -1,0 0,-1 -5,0 0,1 -1,0 0,1 -1,0 0,5 1,0 0,1 1,0 0,1 5,0 0,-1 1,0 0,-1 1,0 0,-14 1,0 0,1 1,0 0,1 1,0 0,1 1,0 0,1 1,0 0,1 1,0 0,1 1,0 0,1 1,0 0,1 1,0 0,1 1,0 0,1 1,0 0,1 1,0 0,1 1,0 0,1 1,0 0,1 1,0 0,6 -1,0 0,-1 -5,0 0,1 -1,0 0,1 -1,0 0,5 1,0 0,1 1,0 0,1 5,0 0,-1 1,0 0,-1 1,0 0,-10 1,0 0,1 1,0 0,1 1,0 0,1 1,0 0,1 1,0 0,1 1,0 0,1 1,0 0,1 1,0 0,1 1,0 0,1 1,0 0,1 1,0 0,1 1,0 0,1 1,0 0,1 1,0 0,1 1,0 0,2 -1,0 0,-1 -5,0 0,1 -1,0 0,1 -1,0 0,5 1,0 0,1 1,0 0,1 5,0 0,-1 1,0 0,-1 1,0 0,-15 -1,0 0,-1 -1,0 0,-1 -1,0 0,-1 -1,0 0,-1 -1,0 0,-1 -1,0 0,-1 -1,0 0,-1 -1,0 0,-1 -1,0 0,-1 -1,0 0,-1 -1,0 0,-1 -1,0 0,-1 -1,0 0,-1 -1,0 0,-1 -1,0 0,-1 -1,0 0,-1 -1,0 0,-1 -1,0 0,-1 -1,0 0,-1 -1,0 0,-1 -1,0 0,-1 -1,0 0,-1 -1,0 0,-1 -1,0 0,-1 -1,0 0,-1 -1,0 0,-1 -1,0 0,-1 -1,0 0,-1 -1,0 0,-1 -1,0 0,-1 -1,0 0,-1 -1,0 0,-1 z"
       style="fill:#000000;fill-opacity:1;stroke:none" />
    <path
       style="fill:#000000;fill-opacity:1;stroke:none"
       d="m 154,331 0,13 -1,0 0,-1 -5,0 0,1 -1,0 0,1 -1,0 0,5 1,0 0,1 1,0 0,1 5,0 0,-1 1,0 0,-1 1,0 0,-10 1,0 0,1 1,0 0,1 1,0 0,1 1,0 0,1 1,0 0,1 1,0 0,1 1,0 0,1 1,0 0,1 1,0 0,1 1,0 0,1 1,0 0,1 1,0 0,1 1,0 0,1 1,0 0,1 1,0 0,2 -1,0 0,-1 -5,0 0,1 -1,0 0,1 -1,0 0,5 1,0 0,1 1,0 0,1 5,0 0,-1 1,0 0,-1 1,0 0,-15 -1,0 0,-1 -1,0 0,-1 -1,0 0,-1 -1,0 0,-1 -1,0 0,-1 -1,0 0,-1 -1,0 0,-1 -1,0 0,-1 -1,0 0,-1 -1,0 0,-1 -1,0 0,-1 -1,0 0,-1 -1,0 0,-1 -1,0 0,-1 -1,0 0,-1 -1,0 0,-1 z"
       id="rect17986"
       inkscape:connector-curvature="0"
       sodipodi:nodetypes="ccccccccccccccccccccccccccccccccccccccccccccccccccccccccccccccccccccccccccccccccccccccccccccccccccccc" />
    <path
       inkscape:connector-curvature="0"
       id="rect9844"
       d="m 131,407 0,1 -1,0 0,2 1,0 0,1 1,0 0,1 2,0 0,1 5,0 0,-1 1,0 0,1 -1,0 0,2 -1,0 0,2 -1,0 0,2 -1,0 0,2 -1,0 0,1 -1,0 0,2 2,0 0,-1 1,0 0,-2 1,0 0,-2 1,0 0,-2 1,0 0,-2 1,0 0,-2 1,0 0,-2 1,0 0,-1 1,0 0,-2 -2,0 0,1 -1,0 0,1 -6,0 0,-2 -1,0 0,-1 -3,0 z"
       style="fill:#000000;fill-opacity:1;stroke:none" />
    <path
       inkscape:connector-curvature="0"
       id="rect9926"
       d="m 167,395 0,1 -1,0 0,2 1,0 0,1 1,0 0,1 2,0 0,1 5,0 0,-1 1,0 0,1 -1,0 0,2 -1,0 0,2 -1,0 0,2 -1,0 0,2 -1,0 0,1 -6,0 0,-2 -1,0 0,-1 -3,0 0,1 -1,0 0,2 1,0 0,1 1,0 0,1 2,0 0,1 5,0 0,-1 1,0 0,1 -1,0 0,2 -1,0 0,2 -1,0 0,2 -1,0 0,2 -1,0 0,1 -1,0 0,2 2,0 0,-1 1,0 0,-2 1,0 0,-2 1,0 0,-2 1,0 0,-2 1,0 0,-2 1,0 0,-2 1,0 0,-2 1,0 0,-2 1,0 0,-2 1,0 0,-2 1,0 0,-2 1,0 0,-2 1,0 0,-1 1,0 0,-2 -2,0 0,1 -1,0 0,1 -6,0 0,-2 -1,0 0,-1 -3,0 z"
       style="fill:#000000;fill-opacity:1;stroke:none" />
    <path
       inkscape:connector-curvature="0"
       id="rect10062"
       d="m 203,395 0,1 -1,0 0,2 1,0 0,1 1,0 0,1 2,0 0,1 5,0 0,-1 1,0 0,1 -1,0 0,2 -1,0 0,2 -1,0 0,2 -1,0 0,2 -1,0 0,1 -6,0 0,-2 -1,0 0,-1 -3,0 0,1 -1,0 0,2 1,0 0,1 1,0 0,1 2,0 0,1 5,0 0,-1 1,0 0,1 -1,0 0,2 -1,0 0,2 -1,0 0,2 -1,0 0,2 -1,0 0,1 -6,0 0,-2 -1,0 0,-1 -3,0 0,1 -1,0 0,2 1,0 0,1 1,0 0,1 2,0 0,1 5,0 0,-1 1,0 0,1 -1,0 0,2 -1,0 0,2 -1,0 0,2 -1,0 0,2 -1,0 0,1 -1,0 0,2 2,0 0,-1 1,0 0,-2 1,0 0,-2 1,0 0,-2 1,0 0,-2 1,0 0,-2 1,0 0,-2 1,0 0,-2 1,0 0,-2 1,0 0,-2 1,0 0,-2 1,0 0,-2 1,0 0,-2 1,0 0,-2 1,0 0,-2 1,0 0,-2 1,0 0,-2 1,0 0,-2 1,0 0,-2 1,0 0,-1 1,0 0,-2 -2,0 0,1 -1,0 0,1 -6,0 0,-2 -1,0 0,-1 -3,0 z"
       style="fill:#000000;fill-opacity:1;stroke:none" />
    <path
       inkscape:connector-curvature="0"
       id="rect10290"
       d="m 244,383 0,1 -1,0 0,2 1,0 0,1 1,0 0,1 2,0 0,1 5,0 0,-1 1,0 0,1 -1,0 0,2 -1,0 0,2 -1,0 0,2 -1,0 0,2 -1,0 0,1 -6,0 0,-2 -1,0 0,-1 -3,0 0,1 -1,0 0,2 1,0 0,1 1,0 0,1 2,0 0,1 5,0 0,-1 1,0 0,1 -1,0 0,2 -1,0 0,2 -1,0 0,2 -1,0 0,2 -1,0 0,1 -6,0 0,-2 -1,0 0,-1 -3,0 0,1 -1,0 0,2 1,0 0,1 1,0 0,1 2,0 0,1 5,0 0,-1 1,0 0,1 -1,0 0,2 -1,0 0,2 -1,0 0,2 -1,0 0,2 -1,0 0,1 -6,0 0,-2 -1,0 0,-1 -3,0 0,1 -1,0 0,2 1,0 0,1 1,0 0,1 2,0 0,1 5,0 0,-1 1,0 0,1 -1,0 0,2 -1,0 0,2 -1,0 0,2 -1,0 0,2 -1,0 0,1 -1,0 0,2 2,0 0,-1 1,0 0,-2 1,0 0,-2 1,0 0,-2 1,0 0,-2 1,0 0,-2 1,0 0,-2 1,0 0,-2 1,0 0,-2 1,0 0,-2 1,0 0,-2 1,0 0,-2 1,0 0,-2 1,0 0,-2 1,0 0,-2 1,0 0,-2 1,0 0,-2 1,0 0,-2 1,0 0,-2 1,0 0,-2 1,0 0,-2 1,0 0,-2 1,0 0,-2 1,0 0,-2 1,0 0,-2 1,0 0,-1 1,0 0,-2 -2,0 0,1 -1,0 0,1 -6,0 0,-2 -1,0 0,-1 -3,0 z"
       style="fill:#000000;fill-opacity:1;stroke:none" />
    <path
       inkscape:connector-curvature="0"
       id="rect10505"
       d="m 280,383 0,1 -1,0 0,2 1,0 0,1 1,0 0,1 2,0 0,1 5,0 0,-1 1,0 0,1 -1,0 0,2 -1,0 0,2 -1,0 0,2 -1,0 0,2 -1,0 0,1 -6,0 0,-2 -1,0 0,-1 -3,0 0,1 -1,0 0,2 1,0 0,1 1,0 0,1 2,0 0,1 5,0 0,-1 1,0 0,1 -1,0 0,2 -1,0 0,2 -1,0 0,2 -1,0 0,2 -1,0 0,1 -6,0 0,-2 -1,0 0,-1 -3,0 0,1 -1,0 0,2 1,0 0,1 1,0 0,1 2,0 0,1 5,0 0,-1 1,0 0,1 -1,0 0,2 -1,0 0,2 -1,0 0,2 -1,0 0,2 -1,0 0,1 -6,0 0,-2 -1,0 0,-1 -3,0 0,1 -1,0 0,2 1,0 0,1 1,0 0,1 2,0 0,1 5,0 0,-1 1,0 0,1 -1,0 0,2 -1,0 0,2 -1,0 0,2 -1,0 0,2 -1,0 0,1 -6,0 0,-2 -1,0 0,-1 -3,0 0,1 -1,0 0,2 1,0 0,1 1,0 0,1 2,0 0,1 5,0 0,-1 1,0 0,1 -1,0 0,2 -1,0 0,2 -1,0 0,2 -1,0 0,2 -1,0 0,1 -1,0 0,2 2,0 0,-1 1,0 0,-2 1,0 0,-2 1,0 0,-2 1,0 0,-2 1,0 0,-2 1,0 0,-2 1,0 0,-2 1,0 0,-2 1,0 0,-2 1,0 0,-2 1,0 0,-2 1,0 0,-2 1,0 0,-2 1,0 0,-2 1,0 0,-2 1,0 0,-2 1,0 0,-2 1,0 0,-2 1,0 0,-2 1,0 0,-2 1,0 0,-2 1,0 0,-2 1,0 0,-2 1,0 0,-2 1,0 0,-2 1,0 0,-2 1,0 0,-2 1,0 0,-2 1,0 0,-2 1,0 0,-2 1,0 0,-1 1,0 0,-2 -2,0 0,1 -1,0 0,1 -6,0 0,-2 -1,0 0,-1 -3,0 z"
       style="fill:#000000;fill-opacity:1;stroke:none" />
    <path
       inkscape:connector-curvature="0"
       id="rect10673"
       d="m 321,371 0,1 -1,0 0,2 1,0 0,1 1,0 0,1 2,0 0,1 5,0 0,-1 1,0 0,1 -1,0 0,2 -1,0 0,2 -1,0 0,2 -1,0 0,2 -1,0 0,1 -6,0 0,-2 -1,0 0,-1 -3,0 0,1 -1,0 0,2 1,0 0,1 1,0 0,1 2,0 0,1 5,0 0,-1 1,0 0,1 -1,0 0,2 -1,0 0,2 -1,0 0,2 -1,0 0,2 -1,0 0,1 -6,0 0,-2 -1,0 0,-1 -3,0 0,1 -1,0 0,2 1,0 0,1 1,0 0,1 2,0 0,1 5,0 0,-1 1,0 0,1 -1,0 0,2 -1,0 0,2 -1,0 0,2 -1,0 0,2 -1,0 0,1 -6,0 0,-2 -1,0 0,-1 -3,0 0,1 -1,0 0,2 1,0 0,1 1,0 0,1 2,0 0,1 5,0 0,-1 1,0 0,1 -1,0 0,2 -1,0 0,2 -1,0 0,2 -1,0 0,2 -1,0 0,1 -6,0 0,-2 -1,0 0,-1 -3,0 0,1 -1,0 0,2 1,0 0,1 1,0 0,1 2,0 0,1 5,0 0,-1 1,0 0,1 -1,0 0,2 -1,0 0,2 -1,0 0,2 -1,0 0,2 -1,0 0,1 -6,0 0,-2 -1,0 0,-1 -3,0 0,1 -1,0 0,2 1,0 0,1 1,0 0,1 2,0 0,1 5,0 0,-1 1,0 0,1 -1,0 0,2 -1,0 0,2 -1,0 0,2 -1,0 0,2 -1,0 0,1 -1,0 0,2 2,0 0,-1 1,0 0,-2 1,0 0,-2 1,0 0,-2 1,0 0,-2 1,0 0,-2 1,0 0,-2 1,0 0,-2 1,0 0,-2 1,0 0,-2 1,0 0,-2 1,0 0,-2 1,0 0,-2 1,0 0,-2 1,0 0,-2 1,0 0,-2 1,0 0,-2 1,0 0,-2 1,0 0,-2 1,0 0,-2 1,0 0,-2 1,0 0,-2 1,0 0,-2 1,0 0,-2 1,0 0,-2 1,0 0,-2 1,0 0,-2 1,0 0,-2 1,0 0,-2 1,0 0,-2 1,0 0,-2 1,0 0,-2 1,0 0,-2 1,0 0,-2 1,0 0,-2 1,0 0,-2 1,0 0,-2 1,0 0,-1 1,0 0,-2 -2,0 0,1 -1,0 0,1 -6,0 0,-2 -1,0 0,-1 -3,0 z"
       style="fill:#000000;fill-opacity:1;stroke:none" />
    <g
       transform="translate(-20,0)"
       id="g20081">
      <g
         style="font-size:16.00001526px;font-style:normal;font-variant:normal;font-weight:bold;font-stretch:normal;line-height:125%;letter-spacing:0px;word-spacing:0px;fill:#000000;fill-opacity:1;stroke:none;font-family:Dogica;-inkscape-font-specification:Dogica Bold"
         id="text12770">
        <path
           inkscape:connector-curvature="0"
           d="m 748,239 0,2 -2,0 0,2 -2,0 0,2 -2,0 0,4 6,0 0,4 4,0 0,-4 2,0 0,-2 -2,0 0,-8 z m -2,6 2,0 0,2 -2,0 z"
           id="path20065" />
      </g>
      <g
         style="font-size:16.00001526px;font-style:normal;font-variant:normal;font-weight:bold;font-stretch:normal;line-height:125%;letter-spacing:0px;word-spacing:0px;fill:#000000;fill-opacity:1;stroke:none;font-family:Dogica;-inkscape-font-specification:Dogica Bold"
         id="text12774">
        <path
           inkscape:connector-curvature="0"
           d="m 748,258 0,2 -2,0 0,2 -2,0 0,2 -2,0 0,4 6,0 0,4 4,0 0,-4 2,0 0,-2 -2,0 0,-8 z m -2,6 2,0 0,2 -2,0 z"
           id="path20062" />
      </g>
      <path
         inkscape:connector-curvature="0"
         style="fill:#000000;fill-opacity:1;stroke:none"
         d="m 740,254 15,0 0,3 -15,0 z"
         id="rect12778" />
    </g>
    <g
       transform="translate(-20,0)"
       id="g20074">
      <g
         style="font-size:16.00001526px;font-style:normal;font-variant:normal;font-weight:bold;font-stretch:normal;line-height:125%;letter-spacing:0px;word-spacing:0px;fill:#000000;fill-opacity:1;stroke:none;font-family:Dogica;-inkscape-font-specification:Dogica Bold"
         id="text20026">
        <path
           inkscape:connector-curvature="0"
           d="m 744,159 0,2 -2,0 0,2 4,0 0,-2 4,0 0,4 -2,0 0,2 -2,0 0,2 -2,0 0,2 -2,0 0,2 12,0 0,-2 -6,0 0,-2 2,0 0,-2 2,0 0,-2 2,0 0,-4 -2,0 0,-2 z"
           id="path20058" />
      </g>
      <g
         style="font-size:16.00001526px;font-style:normal;font-variant:normal;font-weight:bold;font-stretch:normal;line-height:125%;letter-spacing:0px;word-spacing:0px;fill:#000000;fill-opacity:1;stroke:none;font-family:Dogica;-inkscape-font-specification:Dogica Bold"
         id="text20030">
        <path
           inkscape:connector-curvature="0"
           d="m 748,178 0,2 -2,0 0,2 -2,0 0,2 -2,0 0,4 6,0 0,4 4,0 0,-4 2,0 0,-2 -2,0 0,-8 z m -2,6 2,0 0,2 -2,0 z"
           id="path20055" />
      </g>
      <path
         inkscape:connector-curvature="0"
         style="fill:#000000;fill-opacity:1;stroke:none"
         d="m 740,174 15,0 0,3 -15,0 z"
         id="rect20034" />
    </g>
    <g
       transform="translate(-20,0)"
       id="g20067">
      <g
         style="font-size:16.00001526px;font-style:normal;font-variant:normal;font-weight:bold;font-stretch:normal;line-height:125%;letter-spacing:0px;word-spacing:0px;fill:#000000;fill-opacity:1;stroke:none;font-family:Dogica;-inkscape-font-specification:Dogica Bold"
         id="text20036">
        <path
           inkscape:connector-curvature="0"
           d="m 744,79 0,2 -2,0 0,4 2,0 0,2 -2,0 0,4 2,0 0,2 8,0 0,-2 2,0 0,-4 -2,0 0,-2 2,0 0,-4 -2,0 0,-2 z m 2,2 4,0 0,4 -4,0 z m 0,6 4,0 0,4 -4,0 z"
           id="path20051" />
      </g>
      <g
         style="font-size:16.00001526px;font-style:normal;font-variant:normal;font-weight:bold;font-stretch:normal;line-height:125%;letter-spacing:0px;word-spacing:0px;fill:#000000;fill-opacity:1;stroke:none;font-family:Dogica;-inkscape-font-specification:Dogica Bold"
         id="text20040">
        <path
           inkscape:connector-curvature="0"
           d="m 748,98 0,2 -2,0 0,2 -2,0 0,2 -2,0 0,4 6,0 0,4 4,0 0,-4 2,0 0,-2 -2,0 0,-8 z m -2,6 2,0 0,2 -2,0 z"
           id="path20048" />
      </g>
      <path
         inkscape:connector-curvature="0"
         style="fill:#000000;fill-opacity:1;stroke:none"
         d="m 740,94 15,0 0,3 -15,0 z"
         id="rect20044" />
    </g>
  </g>
</svg>
